<svg xmlns="http://www.w3.org/2000/svg" class="marks" width="940" height="582"><g class="mark-group role-frame root" aria-roledescription="group mark container" fill="none" stroke-miterlimit="10"><path class="background" aria-hidden="true" d="M35 5h905v560H35z"/><g class="mark-group role-axis" aria-roledescription="axis" aria-label="Y-axis for a linear scale with values from −3,000 to 1,000"><path class="background" aria-hidden="true" d="M35.5 5.5z" pointer-events="none"/><g class="mark-rule role-axis-grid" pointer-events="none" stroke="#012a58" stroke-opacity=".1"><path d="M35.5 565.5h905M35.5 495.5h905M35.5 425.5h905M35.5 355.5h905M35.5 285.5h905M35.5 215.5h905M35.5 145.5h905M35.5 75.5h905M35.5 5.5h905"/></g><g class="mark-rule role-axis-tick" pointer-events="none" stroke="#888"><path d="M35.5 565.5h-5M35.5 495.5h-5M35.5 425.5h-5M35.5 355.5h-5M35.5 285.5h-5M35.5 215.5h-5M35.5 145.5h-5M35.5 75.5h-5M35.5 5.5h-5"/></g><g class="mark-text role-axis-label" pointer-events="none" text-anchor="end" font-family="Source Sans Pro, sans-serif" font-size="10" fill="#000"><text transform="translate(28.5 568.5)">−3,000</text><text transform="translate(28.5 498.5)">−2,500</text><text transform="translate(28.5 428.5)">−2,000</text><text transform="translate(28.5 358.5)">−1,500</text><text transform="translate(28.5 288.5)">−1,000</text><text transform="translate(28.5 218.5)">−500</text><text transform="translate(28.5 148.5)">0</text><text transform="translate(28.5 78.5)">500</text><text transform="translate(28.5 8.5)">1,000</text></g><path stroke="#888" d="M35.5 565.5V5.5" pointer-events="none"/></g><g class="mark-rect role-mark" aria-roledescription="rect mark container"><path d="M727.05882 134.13441h158.70589V145H727.05882zM514.11765 145h158.70588v18.08058H514.11765zM301.17647 145h158.70588v64.90752H301.17647zM88.2353 145h158.70588v12.05274H88.23529z" fill="#E65F4A"/><path d="M727.05882 145h158.70589v15.46758H727.05882zM514.11765 163.08058h158.70588v58.99097H514.11765zM301.17647 209.90752h158.70588v62.75384H301.17647zM88.2353 157.05274h158.70588v74.6105H88.23529z" fill="#FDBC71"/><path d="M727.05882 110.8349h158.70589v23.29951H727.05882zM514.11765 133.22638h158.70588V145H514.11765zM301.17647 144.54755h158.70588V145H301.17647zM88.2353 231.66324h158.70588v28.67596H88.23529z" fill="#FBF8B0"/><path d="M727.05882 160.46758h158.70589v15.4237H727.05882zM514.11765 107.62934h158.70588v25.59704H514.11765zM301.17647 272.66136h158.70588v49.90631H301.17647zM88.2353 260.3392h158.70588v16.56909H88.23529z" fill="#BBE4A2"/><path d="M727.05882 175.89128h158.70589v47.59015H727.05882zM514.11765 222.07155h158.70588v23.88905H514.11765zM301.17647 322.56767h158.70588v103.68734H301.17647zM88.2353 276.90829h158.70588v85.41981H88.23529z" fill="#5CABAD"/></g><g class="mark-group role-axis" aria-roledescription="axis" aria-label="X-axis for a discrete scale with 4 values: Aggressive Elimination, Moderate Elimination, Tight Suppression, Loose Suppression"><path class="background" aria-hidden="true" d="M35.5 565.5z" pointer-events="none"/><g class="mark-rule role-axis-tick" pointer-events="none" stroke="#888"><path d="M168.5 565.5v5M381.5 565.5v5M593.5 565.5v5M806.5 565.5v5"/></g><g class="mark-text role-axis-label" pointer-events="none" text-anchor="middle" font-family="Source Sans Pro, sans-serif" font-size="10" fill="#000"><text transform="translate(168.08824 580.5)">Aggressive Elimination</text><text transform="translate(381.02941 580.5)">Moderate Elimination</text><text transform="translate(593.97059 580.5)">Tight Suppression</text><text transform="translate(806.91176 580.5)">Loose Suppression</text></g><path stroke="#888" d="M35.5 565.5h905" pointer-events="none"/></g></g></svg>