<svg xmlns="http://www.w3.org/2000/svg" class="marks" width="889" height="602"><g class="mark-group role-frame root" aria-roledescription="group mark container" fill="none" stroke-miterlimit="10"><path class="background" aria-hidden="true" d="M30 5h858v580H30z"/><g class="mark-group role-axis" aria-roledescription="axis" aria-label="X-axis for a linear scale with values from 0 to 51"><path class="background" aria-hidden="true" d="M30.5 585.5z" pointer-events="none"/><g class="mark-rule role-axis-tick" pointer-events="none" stroke="#888"><path d="M30.5 585.5v5M114.5 585.5v5M198.5 585.5v5M282.5 585.5v5M366.5 585.5v5M451.5 585.5v5M535.5 585.5v5M619.5 585.5v5M703.5 585.5v5M787.5 585.5v5M871.5 585.5v5"/></g><g class="mark-text role-axis-label" pointer-events="none" text-anchor="middle" font-family="Source Sans Pro, sans-serif" font-size="10" fill="#000"><text transform="translate(30.5 600.5)">0</text><text transform="translate(114.6 600.5)">5</text><text transform="translate(198.7 600.5)">10</text><text transform="translate(282.9 600.5)">15</text><text transform="translate(367 600.5)">20</text><text transform="translate(451 600.5)">25</text><text transform="translate(535.2 600.5)">30</text><text transform="translate(619.3 600.5)">35</text><text transform="translate(703.4 600.5)">40</text><text transform="translate(787.6 600.5)">45</text><text transform="translate(871.7 600.5)">50</text></g><path stroke="#888" d="M30.5 585.5h858" pointer-events="none"/></g><g class="mark-group role-axis" aria-roledescription="axis" aria-label="Y-axis for a pow scale with values from 0 to 5,000"><path class="background" aria-hidden="true" d="M30.5 5.5z" pointer-events="none"/><g class="mark-rule role-axis-tick" pointer-events="none" stroke="#888"><path d="M30.5 585.5h-5M30.5 516.5h-5M30.5 482.5h-5M30.5 462.5h-5M30.5 431.5h-5M30.5 402.5h-5M30.5 367.5h-5M30.5 311.5h-5M30.5 259.5h-5M30.5 197.5h-5M30.5 97.5h-5M30.5 5.5h-5"/></g><g class="mark-text role-axis-label" pointer-events="none" text-anchor="end" font-family="Source Sans Pro, sans-serif" font-size="10" fill="#000"><text transform="translate(23.5 588.5)">0</text><text transform="translate(23.5 519.5)">1</text><text transform="translate(23.5 485.4)">5</text><text transform="translate(23.5 465.8)">10</text><text transform="translate(23.5 434.3)">25</text><text transform="translate(23.5 405)">50</text><text transform="translate(23.5 370.4)">100</text><text transform="translate(23.5 314.2)">250</text><text transform="translate(23.5 262.3)">500</text><text transform="translate(23.5 200.6)">1,000</text><text transform="translate(23.5 100.8)">2,500</text><text transform="translate(23.5 8.5)">5,000</text></g><path stroke="#888" d="M30.5 585.5V5.5" pointer-events="none"/></g><g class="mark-group role-scope" aria-roledescription="group mark container"><path class="background" aria-hidden="true" d="M30 5z"/><path d="M30 503h16.8l16.8-2.8 16.9-16.8 16.8-3.7 16.8-2 16.8-4.3 16.9-2.3 16.8-6 16.8-6.1 16.8 1.2 16.9-3.6 16.8.4 16.8-13 16.8 4.3 16.9-1.2 16.8-8 16.8 5.6 16.8-2.3 16.8 2.3 16.9 1.1 16.8 10.8 16.8 4.9 16.8 21.1 16.9-3.6 16.8 3.6 16.8-2.2 16.8.7 16.9 7.2 16.8-1.7 16.8 3.6 16.8 6.3 16.9 3.7 16.8 2.8 16.8 3 16.8 10 16.8 5.6 16.9-3 16.8 66.4 16.8-55.8L703 585l16.9-60 16.8 60 16.8-55.8 16.8 55.8h16.9l16.8-50.4 16.8 50.4h16.8l16.9-50.4 16.8-13H888" stroke="#e8f7b0" aria-roledescription="line mark container"/><path class="background" aria-hidden="true" d="M30 5z"/><path d="M30 503l16.8-7.7 16.8-8.7h16.9l16.8 3.6 16.8-6 16.8-13.6 16.9-4.6 16.8-3.7 16.8-13 16.8-15.3 16.9-25.5 16.8-14.5 16.8-7.5 16.8-18.7 16.9-8.3" stroke="#e8f7b0" aria-roledescription="line mark container"/><path class="background" aria-hidden="true" d="M30 5z"/><path d="M282.4 359.5l16.8 16.3 16.8 3 16.8-20.4 16.8-17.8 16.9-7.6 16.8-11.4L400 326l16.8 12.8 16.9-9.8 16.8 1.6 16.8.8 16.8 9.2 16.9-5.2 16.8 5.2 16.8-1.8 16.8-4.2 16.9 8.7 16.8 6.7 16.8 1 16.8 3 16.8 9 16.9 10 16.8 8.7 16.8-15.1 16.8 23.3 16.9-3.4 16.8 19.2" stroke="#bae4bc" aria-roledescription="line mark container"/><path class="background" aria-hidden="true" d="M30 5z"/><path d="M736.6 405.7l16.8 30.4 16.8 12.2 16.9-6 16.8 11.4 16.8 3 16.8 42.2 16.9 4 16.8 4.9 16.8 5.9" stroke="#e8f7b0" aria-roledescription="line mark container"/><path class="background" aria-hidden="true" d="M30 5z"/><path d="M30 497.7l16.8-7.5 16.8-16.8L80.5 454l16.8-7.9 16.8-27.3 16.8-13.1 16.9-29.5 16.8-40 16.8-21.4" stroke="#e8f7b0" aria-roledescription="line mark container"/><path class="background" aria-hidden="true" d="M30 5z"/><path d="M181.4 314.8l16.8-31.9 16.9-39.8" stroke="#bae4bc" aria-roledescription="line mark container"/><path class="background" aria-hidden="true" d="M30 5z"/><path d="M215 243.1l16.9-22.3 16.8-8.3" stroke="#43a2ca" aria-roledescription="line mark container"/><path class="background" aria-hidden="true" d="M30 5z"/><path d="M248.7 212.5l16.8 45.9 16.9 17.7 16.8 40.7L316 302l16.8 89.7 16.8 18.6 16.9 5 16.8 28.2" stroke="#0868ac" aria-roledescription="line mark container"/><path class="background" aria-hidden="true" d="M30 5z"/><path d="M383.3 443.5l16.8-4.4H417l16.9-4" stroke="#43a2ca" aria-roledescription="line mark container"/><path class="background" aria-hidden="true" d="M30 5z"/><path d="M433.8 435.1l16.8-8.8 16.8 6" stroke="#7bccc4" aria-roledescription="line mark container"/><path class="background" aria-hidden="true" d="M30 5z"/><path d="M467.4 432.3l16.8-20.1 16.9-16.4 16.8 4.5" stroke="#bae4bc" aria-roledescription="line mark container"/><path class="background" aria-hidden="true" d="M30 5z"/><path d="M517.9 400.3l16.8-13 16.8-16.9 16.9-3.8" stroke="#e8f7b0" aria-roledescription="line mark container"/><path class="background" aria-hidden="true" d="M30 5z"/><path d="M568.4 366.6l16.8-7.1L602 364l16.8-8 16.8-5.1 16.9 6.3 16.8-5.3 16.8 13.3 16.8 9.1 16.9-1.3 16.8-4 16.8 9.6 16.8 24.8 16.9-4.2" stroke="#bae4bc" aria-roledescription="line mark container"/><path class="background" aria-hidden="true" d="M30 5z"/><path d="M787 399.3l16.9 64 16.8-1.8 16.8 6.5 16.9 15.4 16.8 1.5 16.8.9" stroke="#e8f7b0" aria-roledescription="line mark container"/><path class="background" aria-hidden="true" d="M30 5z"/><path d="M30 503l16.8 8.6h16.8l16.9-7.1 16.8 1.6L114 503l16.8-2.8 16.9 1.3 16.8-6.2 16.8-3.2 16.8 2.1 16.9-11.6 16.8-6.8 16.8-1.8 16.8 3.7 16.9-4.3 16.8 5 16.8-3.8 16.8-7.1 16.8 2.5h16.9l16.8 8.4 16.8 7.4 16.8-4 16.9 11.4 16.8 2.1 16.8 1.2h16.8l16.9 8 16.8 1.6 16.8 7.6 16.8-6 16.9 13.9H602l16.8 13h16.8l16.9 50.4 16.8-42.4L686 585H703l16.9-42.4h33.6l16.8 42.4H804l16.8-42.4h16.8l16.9-8 16.8 50.4H888" stroke="#e8f7b0" aria-roledescription="line mark container"/><path class="background" aria-hidden="true" d="M30 5z"/><path d="M30 497.7l16.8 8.4 16.8-8.4 16.9-9.4 16.8 4.9 16.8-12 16.8-8.4 16.9-7.7 16.8-10 16.8-8.4 16.8-16.2 16.9-8 16.8-.8 16.8-9 16.8-18.3 16.9-32 16.8-16.3 16.8 1" stroke="#e8f7b0" aria-roledescription="line mark container"/><path class="background" aria-hidden="true" d="M30 5z"/><path d="M316 347l16.8-1 16.8 2 16.9-2.9h16.8l16.8-18.4 16.8 3.9 16.9-11 16.8 5 16.8 7.6 16.8-1.6 16.9 16.4 16.8 5 16.8 7.5 16.8-5.5 16.9 19 16.8-15.7 16.8 17.1 16.8 13.8 16.8 17.5 16.9-34" stroke="#bae4bc" aria-roledescription="line mark container"/><path class="background" aria-hidden="true" d="M30 5z"/><path d="M652.5 371.7l16.8 13.2 16.8-6.2 16.8 20.6" stroke="#e8f7b0" aria-roledescription="line mark container"/><path class="background" aria-hidden="true" d="M30 5z"/><path d="M703 399.3l16.8 28.7 16.8 17.8 16.8 3.8" stroke="#bae4bc" aria-roledescription="line mark container"/><path class="background" aria-hidden="true" d="M30 5z"/><path d="M753.4 449.6l16.8 33 16.9 16.3 16.8 14.8 16.8 2.3 16.8 13.2 16.9-15.5 16.8 71.3 16.8-42.4" stroke="#e8f7b0" aria-roledescription="line mark container"/><path class="background" aria-hidden="true" d="M30 5z"/><path d="M30 495.3l16.8 7.7 16.8-31.3L80.5 459l16.8-8.8 16.8-12.9 16.8-19.2 16.9-20.8 16.8-19.7 16.8-42.2" stroke="#e8f7b0" aria-roledescription="line mark container"/><path class="background" aria-hidden="true" d="M30 5z"/><path d="M181.4 335.4l16.8-17.2 16.9-33.4 16.8-54" stroke="#bae4bc" aria-roledescription="line mark container"/><path class="background" aria-hidden="true" d="M30 5z"/><path d="M231.9 230.9l16.8 19 16.8 17.8 16.9-19.3 16.8 5.6 16.8 7.4 16.8-4.5 16.8 14 16.9 12.5 16.8 3.8 16.8 8.2 16.8 29.8 16.9 16.3 16.8 20.3 16.8 12.6 16.8 17.3" stroke="#43a2ca" aria-roledescription="line mark container"/><path class="background" aria-hidden="true" d="M30 5z"/><path d="M484.2 391.7l16.9-1.8 16.8-1.7 16.8 17.5" stroke="#7bccc4" aria-roledescription="line mark container"/><path class="background" aria-hidden="true" d="M30 5z"/><path d="M534.7 405.7l16.8 21.5 16.9 1.6 16.8-2.5" stroke="#bae4bc" aria-roledescription="line mark container"/><path class="background" aria-hidden="true" d="M30 5z"/><path d="M585.2 426.3H602l16.8-14.8 16.8 15.7 16.9 5.1 16.8-19.5 16.8 19.5 16.8 1 16.9 3.8 16.8 10 16.8 25.1 16.8 30.8 16.9-7.7 16.8-9.5 16.8 23.8 16.8-3.5 16.9 3.5 16.8 2 16.8-3.8" stroke="#e8f7b0" aria-roledescription="line mark container"/><path class="background" aria-hidden="true" d="M30 5z"/><path d="M30 509.6l16.8 19.6 16.8-4.2 16.9 4.2 16.8-4.2h33.6l16.9 60 16.8-42.4h16.8l16.8 42.4 16.9-42.4h16.8l16.8 42.4H349.6l16.9-42.4 16.8-8H400l16.8 8h50.5l16.8-8 16.9 8 16.8 42.4 16.8-42.4 16.8 42.4h33.7l16.8-50.4 16.8 8 16.8-8h16.9l16.8-9.6 16.8-15.4L703 506l16.9 12.5 16.8 24 16.8-21 16.8 3.4 16.9 17.6 16.8-31 16.8 7 16.8-5 16.9 8 16.8-15.5 16.8 5.5" stroke="#e8f7b0" aria-roledescription="line mark container"/><path class="background" aria-hidden="true" d="M30 5z"/><path d="M30 503l16.8 6.6 16.8-10.7 16.9 7.2 16.8-16 16.8-11 16.8 10.1 16.9-10.8 16.8-11 16.8-6 16.8-5.5 16.9-17.5 16.8-11.2 16.8-17.5 16.8-15.7 16.9-15.3 16.8-39 16.8-7.5" stroke="#e8f7b0" aria-roledescription="line mark container"/><path class="background" aria-hidden="true" d="M30 5z"/><path d="M316 332.2l16.8-1.6 16.8-17.7 16.9-6.2 16.8-2.4 16.8-4.6 16.8-30.4" stroke="#bae4bc" aria-roledescription="line mark container"/><path class="background" aria-hidden="true" d="M30 5z"/><path d="M417 269.3l16.8 37.4h16.8l16.8 10.1 16.8-21.4 16.9 32.8 16.8 23.8 16.8 43.4 16.8-2 16.9-5.2" stroke="#43a2ca" aria-roledescription="line mark container"/><path class="background" aria-hidden="true" d="M30 5z"/><path d="M568.4 388.2l16.8 5.3 16.8-11.8" stroke="#7bccc4" aria-roledescription="line mark container"/><path class="background" aria-hidden="true" d="M30 5z"/><path d="M602 381.7l16.8-11.3 16.8 4 16.9-6.6 16.8 33.5 16.8 21.9 16.8 19.2 16.9-5.3" stroke="#bae4bc" aria-roledescription="line mark container"/><path class="background" aria-hidden="true" d="M30 5z"/><path d="M719.8 437.1l16.8 10 16.8 16.6 16.8 32.8 16.9 2.4 16.8-4.7 16.8 4.7 16.8 1.3 16.9 4.3 16.8-1.5H888" stroke="#e8f7b0" aria-roledescription="line mark container"/><path class="background" aria-hidden="true" d="M30 5z"/><path d="M30 497.7l16.8-2.4 16.8-7 16.9-19.8 16.8-21.1 16.8-20.5 16.8-23.4 16.9-17 16.8-50.2" stroke="#e8f7b0" aria-roledescription="line mark container"/><path class="background" aria-hidden="true" d="M30 5z"/><path d="M164.6 336.3l16.8-1.7 16.8-19.8 16.9-22 16.8-13.1 16.8-18.3 16.8-10.2" stroke="#bae4bc" aria-roledescription="line mark container"/><path class="background" aria-hidden="true" d="M30 5z"/><path d="M265.5 251.2l16.9 2.8 16.8-18.4 16.8-14.8 16.8 25" stroke="#43a2ca" aria-roledescription="line mark container"/><path class="background" aria-hidden="true" d="M30 5z"/><path d="M332.8 245.8l16.8 43.4 16.9 59.8 16.8 21.4 16.8 56.8 16.8 13" stroke="#0868ac" aria-roledescription="line mark container"/><path class="background" aria-hidden="true" d="M30 5z"/><path d="M417 440.2l16.8 38.2 16.8 18 16.8-1" stroke="#43a2ca" aria-roledescription="line mark container"/><path class="background" aria-hidden="true" d="M30 5z"/><path d="M467.4 495.3l16.8 6.2 16.9-3.8 16.8 3.8" stroke="#7bccc4" aria-roledescription="line mark container"/><path class="background" aria-hidden="true" d="M30 5z"/><path d="M517.9 501.5l16.8 3 16.8-4.3 16.9 9.4" stroke="#bae4bc" aria-roledescription="line mark container"/><path class="background" aria-hidden="true" d="M30 5z"/><path d="M568.4 509.6l16.8-10.7L602 516l16.8 5.6 16.8-12 16.9-12 16.8 10.2 16.8-7.6 16.8-7 16.9 11.3 16.8-9.2 16.8 9.2 16.8-5.6 16.9-4.7 16.8 3.5 16.8 3.8 16.8 4.6 16.9 15.5 16.8 13L888 525" stroke="#e8f7b0" aria-roledescription="line mark container"/><path class="background" aria-hidden="true" d="M30 5z"/><path d="M30 507.8l16.8 13.8 16.8-13.8 16.9-14.6 16.8 5.7 16.8-7.8 16.8 4.2 16.9-7 16.8-5.7 16.8-1.5 16.8-4 16.9 7.8 16.8-7.9 16.8-1.8 16.8 2.5 16.9-4.3 16.8-1.2 16.8-1.6 16.8-.6 16.8-2.5 16.9 5.3 16.8-5.3 16.8 10.2 16.8 7.2 16.9-3.8 16.8 6.4h16.8l16.8 9 16.9 1.2 16.8-2.4 16.8 9.2 16.8-1.5 16.9-6.5 16.8-4.4 16.8 5.6 16.8 1.2 16.8 8.9 16.9 5.9 16.8-12.2 16.8-6.2 16.8-3.2 16.9 2.1 16.8-7.6 16.8 5.5h16.8l16.9 9.4 16.8-7.3 16.8 4.7 16.8-2.4 16.9 1.2 16.8 16 16.8-4.1" stroke="#e8f7b0" aria-roledescription="line mark container"/><path class="background" aria-hidden="true" d="M30 5z"/><path d="M30 507.8l16.8 10.8 16.8-5h16.9l16.8-5.8L114 491l16.8-15.3 16.9-4.1 16.8-14.3 16.8-5.1 16.8-14.4 16.9-10.7 16.8-24.3 16.8-15.5 16.8-19.9 16.9-24.2" stroke="#e8f7b0" aria-roledescription="line mark container"/><path class="background" aria-hidden="true" d="M30 5z"/><path d="M282.4 343.3l16.8-13.5 16.8 11.7 16.8-14 16.8-10.7 16.9-28.6 16.8 1" stroke="#bae4bc" aria-roledescription="line mark container"/><path class="background" aria-hidden="true" d="M30 5z"/><path d="M383.3 289.2l16.8 36 16.8-5.7 16.9 67 16.8-1.6 16.8 6.8" stroke="#43a2ca" aria-roledescription="line mark container"/><path class="background" aria-hidden="true" d="M30 5z"/><path d="M467.4 391.7l16.8 11.8 16.9 27 16.8 24.6" stroke="#7bccc4" aria-roledescription="line mark container"/><path class="background" aria-hidden="true" d="M30 5z"/><path d="M517.9 455.1l16.8-20 16.8 9.6 16.9-6.6" stroke="#bae4bc" aria-roledescription="line mark container"/><path class="background" aria-hidden="true" d="M30 5z"/><path d="M568.4 438.1l16.8-10.1L602 418l16.8-12.4 16.8 7 16.9 7.5 16.8-.7 16.8 3.7 16.8 7.3 16.9 1.8 16.8 14.8 16.8 5.2 16.8 17.2 16.9 13.9 16.8 2.4 16.8 10.7 16.8 6.5h16.9l16.8-1.5 16.8 3" stroke="#e8f7b0" aria-roledescription="line mark container"/><path class="background" aria-hidden="true" d="M30 5z"/><path d="M30 501.5l16.8 1.5 16.8-4.1 16.9-17L97.3 471l16.8-10.5 16.8-11.3 16.9-13 16.8-29 16.8-7 16.8-21.6 16.9-34.5" stroke="#e8f7b0" aria-roledescription="line mark container"/><path class="background" aria-hidden="true" d="M30 5z"/><path d="M215 344.2l16.9-20.4 16.8-39.5 16.8-23 16.9-29.3" stroke="#bae4bc" aria-roledescription="line mark container"/><path class="background" aria-hidden="true" d="M30 5z"/><path d="M282.4 232l16.8 2.4 16.8 21" stroke="#43a2ca" aria-roledescription="line mark container"/><path class="background" aria-hidden="true" d="M30 5z"/><path d="M316 255.4l16.8 48.9 16.8 48.7 16.9 46.3 16.8 4.2 16.8 36.7" stroke="#0868ac" aria-roledescription="line mark container"/><path class="background" aria-hidden="true" d="M30 5z"/><path d="M400.1 440.2l16.8 1 16.9 5.9 16.8-2.4" stroke="#43a2ca" aria-roledescription="line mark container"/><path class="background" aria-hidden="true" d="M30 5z"/><path d="M450.6 444.7l16.8 15.1 16.8 14.8 16.9 1.8" stroke="#7bccc4" aria-roledescription="line mark container"/><path class="background" aria-hidden="true" d="M30 5z"/><path d="M501 476.4l16.9-9 16.8 2.1" stroke="#bae4bc" aria-roledescription="line mark container"/><path class="background" aria-hidden="true" d="M30 5z"/><path d="M534.7 469.5l16.8-6.7 16.9-3 16.8-3.2L602 459l16.8-3.9 16.8 7.2 16.9-6.8 16.8 7.7 16.8-.4 16.8 3.7 16.9 6.9 16.8.6 16.8 5 16.8-.6 16.9-2 16.8.6 16.8 8 16.8-3.9 16.9-2 16.8 9.2 16.8 1" stroke="#e8f7b0" aria-roledescription="line mark container"/><path class="background" aria-hidden="true" d="M30 5z"/><path d="M30 497.7l16.8-6.6 16.8-13.4h16.9l16.8-8.2 16.8 7 16.8-1.3 16.9-7.7 16.8-6.4 16.8 3 16.8 2.4 16.9-8.3 16.8 6.9h16.8l16.8-3.6 16.9 6 16.8 1 16.8 3.7 16.8-.5 16.8 6.7h16.9l16.8 2.7 16.8 6.4 16.8 10.2 16.9-8.5 16.8 8.5 16.8 10 16.8 3.9 16.9-2 16.8-1.8h16.8l16.8-4.8 16.9 13 16.8 5.6L602 525l16.8-9 16.8 18.6 16.9-5.4 16.8-4.2 16.8-11.3 16.8-13.5 16.9-1.3 16.8-4.7 16.8 3.5 16.8-1.2 16.9 2.4 16.8 4 16.8-6.4 16.8-3.3 16.9 3.3 16.8 1.2L888 506" stroke="#e8f7b0" aria-roledescription="line mark container"/><path class="background" aria-hidden="true" d="M30 5z"/><path d="M30 494.2l16.8-7.6 16.8-7.6 16.9-8.4 16.8-12.4L114 454l16.8-5.7 16.9-19.5 16.8-12.8 16.8-6.3 16.8-14.8 16.9-26.1 16.8-5.9" stroke="#e8f7b0" aria-roledescription="line mark container"/><path class="background" aria-hidden="true" d="M30 5z"/><path d="M231.9 363l16.8-2.4 16.8-17.3 16.9-12 16.8 9.3 16.8-19.7 16.8-20.6 16.8-9 16.9 22.9" stroke="#bae4bc" aria-roledescription="line mark container"/><path class="background" aria-hidden="true" d="M30 5z"/><path d="M366.5 314.2l16.8-9.9 16.8 37.2 16.8 26.3 16.9 27.6 16.8-3.7" stroke="#43a2ca" aria-roledescription="line mark container"/><path class="background" aria-hidden="true" d="M30 5z"/><path d="M450.6 391.7l16.8-5.2 16.8-6.3 16.9 13.3" stroke="#7bccc4" aria-roledescription="line mark container"/><path class="background" aria-hidden="true" d="M30 5z"/><path d="M501 393.5l16.9 7.8 16.8-6 16.8 35.2" stroke="#bae4bc" aria-roledescription="line mark container"/><path class="background" aria-hidden="true" d="M30 5z"/><path d="M551.5 430.5l16.9 3.7 16.8-7 16.8 6 16.8 3.9 16.8 13.8 16.9-11.8 16.8 6.7 16.8-6.7 16.8 24.1 16.9 9.6 16.8 15.5 16.8 1.9 16.8-1.9 16.9-.8 16.8 9 16.8-9 16.8 14 16.9 6.3 16.8 3.8 16.8 7" stroke="#e8f7b0" aria-roledescription="line mark container"/><path class="background" aria-hidden="true" d="M30 5z"/><path d="M30 492.1l16.8-17.5 16.8-9 16.9-18.9 16.8 2.9 16.8-22.4 16.8-15.7 16.9-17 16.8-34.5 16.8 5.3" stroke="#e8f7b0" aria-roledescription="line mark container"/><path class="background" aria-hidden="true" d="M30 5z"/><path d="M181.4 365.3l16.8-25.6 16.9-22.2 16.8-17.8 16.8-71.1 16.8-14" stroke="#bae4bc" aria-roledescription="line mark container"/><path class="background" aria-hidden="true" d="M30 5z"/><path d="M265.5 214.6l16.9 49.9 16.8 49.7 16.8 8.1 16.8 28.7 16.8 61.8 16.9 2.6 16.8 34.2" stroke="#0868ac" aria-roledescription="line mark container"/><path class="background" aria-hidden="true" d="M30 5z"/><path d="M383.3 449.6l16.8 10.2L417 467l16.9 5.8" stroke="#43a2ca" aria-roledescription="line mark container"/><path class="background" aria-hidden="true" d="M30 5z"/><path d="M433.8 472.8l16.8 4.9 16.8.7" stroke="#7bccc4" aria-roledescription="line mark container"/><path class="background" aria-hidden="true" d="M30 5z"/><path d="M467.4 478.4l16.8-2 16.9 9.4 16.8-3.2" stroke="#bae4bc" aria-roledescription="line mark container"/><path class="background" aria-hidden="true" d="M30 5z"/><path d="M517.9 482.6l16.8-4.2 16.8-2.6 16.9-3.6 16.8.6 16.8-1.1 16.8 3.5 16.8 6 16.9-9.5 16.8 4 16.8 4.7 16.8-15.3 16.9-4.5 16.8.5 16.8 5 16.8-2 16.9 6.5 16.8 5.8 16.8 4.7 16.8.8 16.9 2.2 16.8-1.5 16.8 7.6" stroke="#e8f7b0" aria-roledescription="line mark container"/><path class="background" aria-hidden="true" d="M30 5z"/><path d="M30 500.2l16.8-2.5 16.8 6.8 16.9 3.3 16.8-14.6h33.6l16.9-8.3 16.8-4.5 16.8-1.4 16.8 2.9 16.9-9.7 16.8-4.2 16.8 7.8 16.8-8.3 16.9 4.2 16.8 5.3 16.8 2.7 16.8 7.8 16.8-1.7 16.9-.9 16.8 4.3 16.8 5H417l16.9 13.6 16.8-1.7 16.8 5.5 16.8 2 16.9-12 16.8-1.4 16.8 15.8 16.8 5.6 16.9-8 16.8 2.4 16.8 13.2 16.8 13.4h16.8l16.9 42.4h16.8l16.8-42.4H703l16.9-8 16.8-13 16.8 3.4 16.8 4.2h16.9l16.8 5.4h16.8l16.8-18.6 16.9 69 16.8-55.8L888 525" stroke="#e8f7b0" aria-roledescription="line mark container"/><path class="background" aria-hidden="true" d="M30 5z"/><path d="M30 498.9l16.8 4 16.8 10.8 16.9-17.2 16.8-18.8 16.8 4.2 16.8-16.4 16.9-13.6 16.8-11.4 16.8-13.3 16.8-2.5 16.9-15.6 16.8-16 16.8-9 16.8-17.5 16.9-43.5" stroke="#e8f7b0" aria-roledescription="line mark container"/><path class="background" aria-hidden="true" d="M30 5z"/><path d="M282.4 323l16.8-10.8 16.8-14.1 16.8-10.9 16.8-36" stroke="#bae4bc" aria-roledescription="line mark container"/><path class="background" aria-hidden="true" d="M30 5z"/><path d="M349.6 251.2l16.9 32.2 16.8 3.8 16.8 8.2L417 338l16.9-18.5 16.8 65.4 16.8 39 16.8-14.8" stroke="#43a2ca" aria-roledescription="line mark container"/><path class="background" aria-hidden="true" d="M30 5z"/><path d="M484.2 409.1l16.9 34.4 16.8-2.2 16.8-2.2" stroke="#7bccc4" aria-roledescription="line mark container"/><path class="background" aria-hidden="true" d="M30 5z"/><path d="M534.7 439.1l16.8-7.7 16.9-2.6 16.8-8.6" stroke="#bae4bc" aria-roledescription="line mark container"/><path class="background" aria-hidden="true" d="M30 5z"/><path d="M585.2 420.2l16.8 15 16.8 6h16.8l16.9-1 16.8 10.7 16.8-3.8 16.8-8 16.9 13.2 16.8-14.2 16.8 6.6 16.8 4.9 16.9 2.7 16.8 37.9 16.8 8.7 16.8-7.8 16.9 16.7 16.8 1.8 16.8-10.7" stroke="#e8f7b0" aria-roledescription="line mark container"/><path class="background" aria-hidden="true" d="M30 5z"/><path d="M30 495.3l16.8-4.2 16.8-21 16.9-3.6 16.8-15.3 16.8-20.9 16.8-16.2 16.9-30.8 16.8-21.5 16.8-37.3" stroke="#e8f7b0" aria-roledescription="line mark container"/><path class="background" aria-hidden="true" d="M30 5z"/><path d="M181.4 324.5l16.8-24.2 16.9-34.2 16.8-31.7" stroke="#bae4bc" aria-roledescription="line mark container"/><path class="background" aria-hidden="true" d="M30 5z"/><path d="M231.9 234.4l16.8 49" stroke="#43a2ca" aria-roledescription="line mark container"/><path class="background" aria-hidden="true" d="M30 5z"/><path d="M248.7 283.4l16.8 28.2 16.9 16.6 16.8 55 16.8 44 16.8-15.7" stroke="#0868ac" aria-roledescription="line mark container"/><path class="background" aria-hidden="true" d="M30 5z"/><path d="M332.8 411.5l16.8 35.6 16.9 1.2 16.8 1.3" stroke="#43a2ca" aria-roledescription="line mark container"/><path class="background" aria-hidden="true" d="M30 5z"/><path d="M383.3 449.6l16.8-1.3 16.8 8.3 16.9 22.4" stroke="#7bccc4" aria-roledescription="line mark container"/><path class="background" aria-hidden="true" d="M30 5z"/><path d="M433.8 479l16.8-13 16.8-6.2 16.8-5.4" stroke="#bae4bc" aria-roledescription="line mark container"/><path class="background" aria-hidden="true" d="M30 5z"/><path d="M484.2 454.4l16.9.4 16.8 4.2 16.8-2.4 16.8 5.7 16.9-.8h16.8l16.8 1.7 16.8 1.4 16.8 4.4 16.9-2 16.8 8.2H686l16.8.6 16.9 17.4 16.8 2.1 16.8 1.2 16.8-2.3 16.9 6 16.8 4.3 16.8 5 16.8-6.5 16.9 8.6 16.8-11.4 16.8 11.4" stroke="#e8f7b0" aria-roledescription="line mark container"/><path class="background" aria-hidden="true" d="M30 5z"/><path d="M30 501.5l16.8-3.8 16.8 16 16.9 7.9 16.8-10L114 525l16.8 17.6h16.9l16.8 42.4 16.8-42.4 16.8-8 16.9 50.4 16.8-42.4h16.8l16.8-8 16.9-9.6 16.8 17.6 16.8-8 16.8 50.4 16.8-55.8 16.9 55.8 16.8-50.4 16.8 8 16.8-13.4 16.9-4.2 16.8-3.4 16.8-3h16.8l16.9-15.6 16.8 10.7 16.8-4.1 16.8 9 16.9-7 16.8 2 16.8-5.8h16.8l16.8 5.9 16.9 2.3 16.8 5.6 16.8-12 16.8-10.7 16.9-7.8 16.8 20.5 16.8-8.6 16.8-1.5 16.9-9.4 16.8 10.9 16.8 10.7 16.8-9.2 16.9 5 16.8 19.7 16.8-17.6" stroke="#e8f7b0" aria-roledescription="line mark container"/><path class="background" aria-hidden="true" d="M30 5z"/><path d="M30 490.2l16.8 8.7 16.8-14.8 16.9-11.3 16.8 1.8L114 469l16.8-11.2 16.9-4.1 16.8-7.9 16.8-13.5 16.8-8.3 16.9-22.1 16.8-12.9 16.8-28.4 16.8-14.5 16.9-35.1" stroke="#e8f7b0" aria-roledescription="line mark container"/><path class="background" aria-hidden="true" d="M30 5z"/><path d="M282.4 311l16.8-3.7 16.8-29.4 16.8-42.3" stroke="#bae4bc" aria-roledescription="line mark container"/><path class="background" aria-hidden="true" d="M30 5z"/><path d="M332.8 235.6l16.8 10.2 16.9 2.6 16.8 10 16.8 16 16.8-1.8 16.9 58.8 16.8 10 16.8 64.3 16.8-19.2 16.9 37.5" stroke="#43a2ca" aria-roledescription="line mark container"/><path class="background" aria-hidden="true" d="M30 5z"/><path d="M501 424l16.9 19.5 16.8 6" stroke="#7bccc4" aria-roledescription="line mark container"/><path class="background" aria-hidden="true" d="M30 5z"/><path d="M534.7 449.6l16.8 10.2 16.9 35.5 16.8-7" stroke="#bae4bc" aria-roledescription="line mark container"/><path class="background" aria-hidden="true" d="M30 5z"/><path d="M585.2 488.3l16.8 2.8 16.8-1 16.8 16 16.9-6h16.8l16.8-2.4 16.8 2.5 16.9-9 16.8 5.3 16.8 5 16.8-1.3 16.9-10 16.8 8.7 16.8-6.8 16.8-2 16.9 8.8 16.8 5.6 16.8-3" stroke="#e8f7b0" aria-roledescription="line mark container"/><path class="background" aria-hidden="true" d="M30 5z"/><path d="M30 490.2l16.8-1 16.8 12.3 16.9-33 16.8-14.8L114 438l16.8-29 16.9-6.7 16.8-21.4 16.8-31" stroke="#e8f7b0" aria-roledescription="line mark container"/><path class="background" aria-hidden="true" d="M30 5z"/><path d="M181.4 350l16.8-37.1 16.9-14.8 16.8-55 16.8-12.2" stroke="#bae4bc" aria-roledescription="line mark container"/><path class="background" aria-hidden="true" d="M30 5z"/><path d="M248.7 230.9l16.8 19 16.9-25.8 16.8 16.5 16.8-1.3 16.8 22 16.8 18.4" stroke="#43a2ca" aria-roledescription="line mark container"/><path class="background" aria-hidden="true" d="M30 5z"/><path d="M349.6 279.7l16.9 29.4 16.8 39.9 16.8 72L417 418l16.9 5" stroke="#0868ac" aria-roledescription="line mark container"/><path class="background" aria-hidden="true" d="M30 5z"/><path d="M433.8 423.2l16.8 11 16.8 2" stroke="#43a2ca" aria-roledescription="line mark container"/><path class="background" aria-hidden="true" d="M30 5z"/><path d="M467.4 436.1l16.8 13.5 16.9 7 16.8-5.7" stroke="#7bccc4" aria-roledescription="line mark container"/><path class="background" aria-hidden="true" d="M30 5z"/><path d="M517.9 451l16.8 33.1 16.8-.7 16.9-2.3" stroke="#bae4bc" aria-roledescription="line mark container"/><path class="background" aria-hidden="true" d="M30 5z"/><path d="M568.4 481.1l16.8.8 16.8 3.9 16.8-7.4 16.8 11.8 16.9-1.9 16.8 2.8 16.8-20.5H703l16.9.5 16.8 5.3 16.8-1.2 16.8 3.2 16.9-8.4 16.8 5.2 16.8 6.7 16.8-6.7 16.9 14 16.8-.9H888" stroke="#e8f7b0" aria-roledescription="line mark container"/><path class="background" aria-hidden="true" d="M30 5z"/><path d="M30 504.5l16.8-6.8 16.8-6.6 16.9 4.2 16.8-12L114 485 131 477l16.9 2.7 16.8-5.7 16.8 7.9 16.8-10.2 16.9 2.3 16.8 2.4 16.8-3.6 16.8 1.2 16.9-1.2 16.8 9 16.8 8.4 16.8-4.4 16.8-11.2 16.9 12.9 16.8-8.5 16.8 7.6 16.8-6.2 16.9 4.5 16.8 11.6 16.8-2.3 16.8 8.8 16.9 15.6 16.8 3 16.8 21h33.7l16.8-8 16.8 8 16.8-13.4 16.8 55.8h33.7l16.8-55.8 16.8-10.6 16.9-5 16.8-2 16.8-3.8 16.8 17.2 16.9-19 16.8 5.6 16.8-3.8 16.8 1.8 16.9 6.4 16.8 9 16.8 17.6" stroke="#e8f7b0" aria-roledescription="line mark container"/><path class="background" aria-hidden="true" d="M30 5z"/><path d="M30 504.5l16.8-15.3h16.8l16.9 2 16.8-6.3L114 477l16.8-10 16.9-13.3 16.8-8.8 16.8-17.7 16.8-13.8 16.9-18 16.8-12.5 16.8-28.9" stroke="#e8f7b0" aria-roledescription="line mark container"/><path class="background" aria-hidden="true" d="M30 5z"/><path d="M248.7 354l16.8 4.4h16.9l16.8-1.1 16.8-33.5 16.8 2.2 16.8-6.5 16.9-41.6h16.8" stroke="#bae4bc" aria-roledescription="line mark container"/><path class="background" aria-hidden="true" d="M30 5z"/><path d="M383.3 277.9l16.8 33.7 16.8-18.3 16.9 35 16.8-6 16.8 52.1 16.8 15.5 16.9-9.7" stroke="#43a2ca" aria-roledescription="line mark container"/><path class="background" aria-hidden="true" d="M30 5z"/><path d="M501 380.2l16.9 21.1 16.8-16.4 16.8 6.8" stroke="#7bccc4" aria-roledescription="line mark container"/><path class="background" aria-hidden="true" d="M30 5z"/><path d="M551.5 391.7l16.9 38 16.8 11.6L602 437" stroke="#bae4bc" aria-roledescription="line mark container"/><path class="background" aria-hidden="true" d="M30 5z"/><path d="M602 437.1l16.8-3.8 16.8-1.9 16.9 9.9 16.8 7 16.8-4.8 16.8-2.2 16.9 3.4 16.8 4.9 16.8 12.3 16.8 29.2 16.9 2 16.8 3.4 16.8 9.6 16.8 1.7h16.9l16.8-4.8 16.8 6.6" stroke="#e8f7b0" aria-roledescription="line mark container"/><path class="background" aria-hidden="true" d="M30 5z"/><path d="M30 492.1l16.8-1 16.8-14 16.9-10.6 16.8-17 16.8-19.4 16.8-23.9 16.9-23 16.8-21.4 16.8-40.2" stroke="#e8f7b0" aria-roledescription="line mark container"/><path class="background" aria-hidden="true" d="M30 5z"/><path d="M181.4 321.6l16.8-24 16.9-65.6" stroke="#bae4bc" aria-roledescription="line mark container"/><path class="background" aria-hidden="true" d="M30 5z"/><path d="M215 232l16.9-2.3 16.8 28.7" stroke="#43a2ca" aria-roledescription="line mark container"/><path class="background" aria-hidden="true" d="M30 5z"/><path d="M248.7 258.4l16.8 25 16.9 18.6 16.8 39.5 16.8 34.3 16.8 51.4 16.8 16.3 16.9 6" stroke="#0868ac" aria-roledescription="line mark container"/><path class="background" aria-hidden="true" d="M30 5z"/><path d="M366.5 449.6l16.8 19.4 16.8 9.4" stroke="#43a2ca" aria-roledescription="line mark container"/><path class="background" aria-hidden="true" d="M30 5z"/><path d="M400.1 478.4l16.8-2 16.9 7 16.8 2.4" stroke="#7bccc4" aria-roledescription="line mark container"/><path class="background" aria-hidden="true" d="M30 5z"/><path d="M450.6 485.8l16.8-5.4 16.8 4.5 16.9-3.8" stroke="#bae4bc" aria-roledescription="line mark container"/><path class="background" aria-hidden="true" d="M30 5z"/><path d="M501 481.1l16.9-4.7 16.8.6 16.8 10.5 16.9-4.1 16.8 4 16.8-6.3h16.8l16.8 4.7 16.9-8.1 16.8 10.6 16.8 6L703 503l16.9-6.5 16.8 3.7 16.8 5.9 16.8-7.2 16.9 8.9 16.8-6.3 16.8-3.8 16.8 3.8 16.9 3h16.8l16.8 17" stroke="#e8f7b0" aria-roledescription="line mark container"/><path class="background" aria-hidden="true" d="M30 5z"/><path d="M30 509.6L46.8 525l16.8-3.4 16.9 13h16.8L114 585H232l16.8-42.4 16.8-17.6 16.9 9.6 16.8-5.4 16.8-15.5 16.8 15.5h16.8l16.9 5.4 16.8 8L400 585H417l16.9-42.4 16.8-13.4 16.8-10.6 16.8 16 16.9 50.4 16.8-50.4 16.8-5.4 16.8 55.8h16.9l16.8-42.4L602 585l16.8-42.4 16.8 42.4h16.9l16.8-50.4 16.8-25 16.8 2 16.9-7.1 16.8 5 16.8 2h16.8l16.9 13.5 16.8 4.2 16.8-13.2 16.8 2.6 16.9-10.8 16.8-1.7 16.8 10" stroke="#e8f7b0" aria-roledescription="line mark container"/><path class="background" aria-hidden="true" d="M30 5z"/><path d="M30 509.6l16.8 9 16.8-18.4h16.9l16.8-1.3 16.8-6.8 16.8-8.7 16.9-13.9 16.8-1 16.8 2 16.8-5.4 16.9-11.8 16.8-2.4 16.8-20.4 16.8-17.7 16.9 1.3 16.8-24.2 16.8-18.2 16.8 11.6 16.8-29.3 16.9-4" stroke="#e8f7b0" aria-roledescription="line mark container"/><path class="background" aria-hidden="true" d="M30 5z"/><path d="M366.5 350l16.8-5.8L400 353l16.8-20 16.9 30 16.8-14 16.8-3.9 16.8-7.1 16.9 2.6 16.8 14.5 16.8-2.1 16.8 14.8h16.9l16.8 6.6 16.8 2.9 16.8-4.2 16.8 26.2 16.9 8 16.8 23.2" stroke="#bae4bc" aria-roledescription="line mark container"/><path class="background" aria-hidden="true" d="M30 5z"/><path d="M669.3 430.5l16.8-8L703 435l16.9-10.4 16.8 14.4 16.8 10.5 16.8 2.7 16.9 23.5 16.8 18.4 16.8-5 16.8 9.7 16.9-1.2 16.8-3.5 16.8 2.3" stroke="#e8f7b0" aria-roledescription="line mark container"/><path class="background" aria-hidden="true" d="M30 5z"/><path d="M30 495.3l16.8-7.8 16.8-22.9 16.9-17.5 16.8-20.4L114 404 131 382l16.9-43.3 16.8-27.8" stroke="#e8f7b0" aria-roledescription="line mark container"/><path class="background" aria-hidden="true" d="M30 5z"/><path d="M164.6 311l16.8-34.9 16.8-46.4" stroke="#bae4bc" aria-roledescription="line mark container"/><path class="background" aria-hidden="true" d="M30 5z"/><path d="M198.2 229.7l16.9 8.4" stroke="#43a2ca" aria-roledescription="line mark container"/><path class="background" aria-hidden="true" d="M30 5z"/><path d="M215 238l16.9 87.2 16.8 72 16.8 23.8 16.9-7" stroke="#0868ac" aria-roledescription="line mark container"/><path class="background" aria-hidden="true" d="M30 5z"/><path d="M282.4 414l16.8 39.7 16.8 3 16.8-4.4" stroke="#43a2ca" aria-roledescription="line mark container"/><path class="background" aria-hidden="true" d="M30 5z"/><path d="M332.8 452.3l16.8 24.1 16.9-9 16.8 3.2" stroke="#7bccc4" aria-roledescription="line mark container"/><path class="background" aria-hidden="true" d="M30 5z"/><path d="M383.3 470.6l16.8-10.4L417 469l16.9-7" stroke="#bae4bc" aria-roledescription="line mark container"/><path class="background" aria-hidden="true" d="M30 5z"/><path d="M433.8 462l16.8 1.7 16.8-8.2 16.8-.7 16.9-.8 16.8 11.5 16.8-.4 16.8-5.7 16.9-3.2 16.8 2.4 16.8-8.4 16.8 17.8 16.8-1 16.9 10 16.8 14.1H686L703 499l16.9-6.8 16.8 5.6 16.8 13.9 16.8-8.6 16.9 8.6 16.8-2 16.8 6.4 16.8-2.3 16.9-13.5 16.8 13.5 16.8-6" stroke="#e8f7b0" aria-roledescription="line mark container"/><path class="background" aria-hidden="true" d="M30 5z"/><path d="M30 513.7l16.8 5 16.8-2.7 16.9-2.3h16.8l16.8-4.1H131l16.9-10.7 16.8 14.8 16.8 2.3 16.8-10 16.9-4.5 16.8-3.8 16.8-5.6h16.8l16.9-10.2 16.8 8.3 16.8-1 16.8 3 16.8-3.9 16.9 9.4 16.8-5.6 16.8 2.1 16.8 2.3 16.9 11.3 16.8 1.8h16.8l16.8 2 16.9-5.5 16.8 7.6 16.8 11.3 16.8-6.4 16.9 6.4 16.8-6.4 16.8 16 16.8-16 16.8 10.6 16.9-7.6 16.8 7.6 16.8-17.6 16.8 10 16.9-10 16.8-2 16.8-9.4 16.8-8 16.9 5.5 16.8 2.5 16.8 11.4 16.8-11.4 16.9 1.3 16.8 10L888 516" stroke="#e8f7b0" aria-roledescription="line mark container"/><path class="background" aria-hidden="true" d="M30 5z"/><path d="M30 503l16.8-13.8 16.8-5 16.9-2.3L97.3 466l16.8-1.9 16.8-3.9 16.9-3.6 16.8-8.6 16.8-17.5 16.8-.8 16.9-17 16.8-4.8 16.8-13 16.8-39.8 16.9 4.4" stroke="#e8f7b0" aria-roledescription="line mark container"/><path class="background" aria-hidden="true" d="M30 5z"/><path d="M282.4 359.5l16.8-24L316 337l16.8-8 16.8-1.6 16.9-12.7 16.8-15 16.8-22 16.8 5.6 16.9-26.5" stroke="#bae4bc" aria-roledescription="line mark container"/><path class="background" aria-hidden="true" d="M30 5z"/><path d="M433.8 256.9l16.8 19.2 16.8 46.2 16.8 6 16.9 61.6 16.8 3.6 16.8 24.6" stroke="#43a2ca" aria-roledescription="line mark container"/><path class="background" aria-hidden="true" d="M30 5z"/><path d="M534.7 418.1l16.8 48.9 16.9-7.2 16.8 27.7" stroke="#7bccc4" aria-roledescription="line mark container"/><path class="background" aria-hidden="true" d="M30 5z"/><path d="M585.2 487.5l16.8-1.7h16.8" stroke="#bae4bc" aria-roledescription="line mark container"/><g><path class="background" aria-hidden="true" d="M30 5z"/><path d="M618.8 485.8l16.8-1.7 16.9-3 16.8 4.7 16.8 3.4 16.8-2.6 16.9 1.7 16.8 4.9h16.8l16.8 4.5 16.9 2.5 16.8-6 16.8-3 16.8-3.7 16.9-1.7 16.8 6.3 16.8-2" stroke="#e8f7b0" aria-roledescription="line mark container"/></g><g><path class="background" aria-hidden="true" d="M30 5z"/><path d="M30 504.5L46.8 492 63.6 474l16.9-11.2 16.8-13.2L114 415l16.8-14.3 16.9-35.5 16.8-18.3 16.8-43.9" stroke="#e8f7b0" aria-roledescription="line mark container"/></g><g><path class="background" aria-hidden="true" d="M30 5z"/><path d="M181.4 303.1l16.8-35.4 16.9-45.8" stroke="#bae4bc" aria-roledescription="line mark container"/></g><g><path class="background" aria-hidden="true" d="M30 5z"/><path d="M215 221.9l16.9 2.2" stroke="#43a2ca" aria-roledescription="line mark container"/></g><g><path class="background" aria-hidden="true" d="M30 5z"/><path d="M231.9 224l16.8 55.7 16.8 42.6 16.9 67.6 16.8 37.3 16.8 6 16.8 22" stroke="#0868ac" aria-roledescription="line mark container"/></g><g><path class="background" aria-hidden="true" d="M30 5z"/><path d="M332.8 455.1l16.8-12.7 16.9-8.2 16.8 11.6" stroke="#43a2ca" aria-roledescription="line mark container"/></g><g><path class="background" aria-hidden="true" d="M30 5z"/><path d="M383.3 445.8l16.8 6.5 16.8 7.5" stroke="#7bccc4" aria-roledescription="line mark container"/></g><g><path class="background" aria-hidden="true" d="M30 5z"/><path d="M417 459.8l16.8 20 16.8-3.4 16.8-15" stroke="#bae4bc" aria-roledescription="line mark container"/></g><g><path class="background" aria-hidden="true" d="M30 5z"/><path d="M467.4 461.5l16.8-2.5 16.9-7.8 16.8 4.3 16.8-5 16.8 19.5 16.9-8 16.8 1.2 16.8.5 16.8-1 16.8 9 16.9 1.1 16.8 4.9 16.8-1.3 16.8 11h16.9l16.8 2.8 16.8-8.3 16.8-6.7 16.9 6 16.8 8 16.8 1 16.8-9.8 16.9 13.8 16.8-10.8 16.8 10.8" stroke="#e8f7b0" aria-roledescription="line mark container"/></g><g><path class="background" aria-hidden="true" d="M30 5z"/><path d="M30 497.7l16.8 3.8 16.8 12.2 16.9-6 16.8-12.4 16.8-6 16.8 7.2h16.9l16.8-6.3 16.8-1.9 16.8 4.9 16.9 3.3 16.8-15.4 16.8-5.3 16.8.6 16.9 8.5 16.8-9.1 16.8 2.6 16.8-3.2 16.8-1.2 16.9-2.3 16.8 6.7 16.8-6.7H417l16.9 3.5 16.8 1.8 16.8 7.1 16.8.8 16.9 2.6 16.8-2.6 16.8 9.3 16.8-3 16.9 9 16.8 1.3 16.8 12.2 16.8-2.1 16.8 10h16.9l16.8-5.6 16.8-8.2 16.8 1.8 16.9-5.1 16.8-5.6 16.8 2.6 16.8 12.2 16.9-7.6 16.8-6 16.8 7.7 16.8 1.8 16.9 2 16.8-3.8 16.8-10.1" stroke="#e8f7b0" aria-roledescription="line mark container"/></g><g><path class="background" aria-hidden="true" d="M30 5z"/><path d="M30 497.7l16.8-3.5 16.8 11.9 16.9-11.9L97.3 482l16.8-23.3 16.8 2.9 16.9-10h16.8l16.8-11.3 16.8-8.8 16.9 6.7 16.8-16.4 16.8 6.3 16.8-21.8 16.9 8.5 16.8-10.2 16.8-8.7 16.8-5.5 16.8-5.4 16.9-4.7 16.8 6.3 16.8-14.8 16.8-13.3" stroke="#e8f7b0" aria-roledescription="line mark container"/></g><g><path class="background" aria-hidden="true" d="M30 5z"/><path d="M417 358.4l16.8 9.4 16.8-8.3 16.8 13.6 16.8-9 16.9 1.2 16.8-12.3 16.8-15 16.8 7.1 16.9 16.7 16.8-1.2 16.8-4.4 16.8 15.5 16.8 21.8 16.9-32.9 16.8 13.8 16.8 27H703" stroke="#bae4bc" aria-roledescription="line mark container"/></g><g><path class="background" aria-hidden="true" d="M30 5z"/><path d="M703 401.3l16.8 44.5 16.8 1.3 16.8 1.2 16.8 21.2 16.9 29.4 16.8-9.7 16.8 4 16.8 3.3 16.9-1.2 16.8 10.8 16.8 5.5" stroke="#e8f7b0" aria-roledescription="line mark container"/></g><g><path class="background" aria-hidden="true" d="M30 5z"/><path d="M30 497.7l16.8-5.6 16.8-8 16.9-6.4 16.8-2.5 16.8-9.7 16.8-17.2 16.9-5.4 16.8-24.8 16.8-13.6 16.8-16.3 16.9-48.5 16.8-26.8" stroke="#e8f7b0" aria-roledescription="line mark container"/></g><g><path class="background" aria-hidden="true" d="M30 5z"/><path d="M231.9 312.9l16.8-20.1 16.8-43 16.9-19" stroke="#bae4bc" aria-roledescription="line mark container"/></g><g><path class="background" aria-hidden="true" d="M30 5z"/><path d="M282.4 230.9l16.8 36.8" stroke="#43a2ca" aria-roledescription="line mark container"/></g><g><path class="background" aria-hidden="true" d="M30 5z"/><path d="M299.2 267.7l16.8 17.6 16.8 23.8 16.8 57.5 16.9 60.6 16.8-3.2 16.8 24.3" stroke="#0868ac" aria-roledescription="line mark container"/></g><g><path class="background" aria-hidden="true" d="M30 5z"/><path d="M400.1 448.3L417 467l16.9 4.1 16.8 10.8" stroke="#43a2ca" aria-roledescription="line mark container"/></g><g><path class="background" aria-hidden="true" d="M30 5z"/><path d="M450.6 481.9l16.8-6.1 16.8-3 16.9.6" stroke="#7bccc4" aria-roledescription="line mark container"/></g><g><path class="background" aria-hidden="true" d="M30 5z"/><path d="M501 473.4H518l16.8 4.3" stroke="#bae4bc" aria-roledescription="line mark container"/></g><g><path class="background" aria-hidden="true" d="M30 5z"/><path d="M534.7 477.7l16.8 3.4 16.9-10.5 16.8 1.6 16.8-3.7 16.8-6.2 16.8 9.4 16.9-1.1 16.8-1.6 16.8-5.8L703 470l16.9-2 16.8 1 16.8 2.1 16.8 13.8 16.9-.8 16.8 3.4 16.8 3.6 16.8 6.6 16.9 5.3 16.8-10.9 16.8 9.4" stroke="#e8f7b0" aria-roledescription="line mark container"/></g><g><path class="background" aria-hidden="true" d="M30 5z"/><path d="M30 506l16.8 1.8 16.8 3.8 16.9 7 16.8-12.5 16.8 5.5H131l16.9 4.4 16.8-8.2 16.8 1.8 16.8 6.4 16.9-2.3 16.8 7.9 16.8-17.1 16.8 1.6 16.9-9.6 16.8-1.2 16.8 1.2 16.8-9 16.8-1.7 16.9 6.3 16.8-2.9 16.8-1.7 16.8 2.7 16.9 7.5 16.8 2.5 16.8 2.8 16.8 1.5 16.9 9.2 16.8-10.7h16.8l16.8-9.8 16.9 7 16.8-6 16.8 1.1 16.8 3.6 16.8 1.3 16.9 15.8 16.8-2.3L686 516H703l16.9-2.3 16.8-6 16.8 13.9 16.8-5.6h16.9l16.8 13.2 16.8-17.6 16.8 2 16.9-4 16.8 2 16.8 7" stroke="#e8f7b0" aria-roledescription="line mark container"/></g><g><path class="background" aria-hidden="true" d="M30 5z"/><path d="M30 504.5l16.8 5h16.8l16.9-6.5 16.8 3H114l16.8 1.8 16.9-22.9 16.8-.8 16.8-3 16.8-6 16.9-2.9 16.8-5.7 16.8-10.6 16.8-1.9 16.9-11.6 16.8-6.3 16.8-13.7 16.8-9 16.8-20.8 16.9-11.6 16.8-42.2" stroke="#e8f7b0" aria-roledescription="line mark container"/></g><g><path class="background" aria-hidden="true" d="M30 5z"/><path d="M383.3 338.8l16.8 2.7 16.8 2.7 16.9-3.6 16.8 8.4 16.8-11.9 16.8 14.9 16.9-4 16.8-5.6 16.8 10.6 16.8 33.5 16.9 12.8 16.8-2 16.8 25.1 16.8 13.7 16.8-3.8" stroke="#bae4bc" aria-roledescription="line mark container"/></g><g><path class="background" aria-hidden="true" d="M30 5z"/><path d="M635.6 432.3l16.9 12.4 16.8 13.5 16.8 24.4 16.8-6.2 16.9 2.6 16.8 6.8 16.8 8.4 16.8-5.9 16.9 16.2 16.8-4.3 16.8 1.3 16.8 6.3 16.9-4.8 16.8-1.5L888 503" stroke="#e8f7b0" aria-roledescription="line mark container"/></g><g><path class="background" aria-hidden="true" d="M30 5z"/><path d="M30 506l16.8-5.8 16.8-2.5 16.9-12.8 16.8-4.5 16.8-4.6 16.8-19.6 16.9-21.8 16.8-26.5 16.8-14.9 16.8-21.6 16.9-39.2 16.8-3.2" stroke="#e8f7b0" aria-roledescription="line mark container"/></g><g><path class="background" aria-hidden="true" d="M30 5z"/><path d="M231.9 329l16.8-14.2 16.8-35.1 16.9-36.6" stroke="#bae4bc" aria-roledescription="line mark container"/></g><g><path class="background" aria-hidden="true" d="M30 5z"/><path d="M282.4 243.1l16.8 12.3 16.8 14 16.8-1.7 16.8 12h16.9l16.8-13.6 16.8 6.5 16.8 20.7 16.9-8 16.8-2 16.8 42 16.8 52 16.9 35.5 16.8 5.3" stroke="#43a2ca" aria-roledescription="line mark container"/></g><g><path class="background" aria-hidden="true" d="M30 5z"/><path d="M517.9 418.1l16.8 41.7 16.8-8.9 16.9 15.1" stroke="#7bccc4" aria-roledescription="line mark container"/></g><g><path class="background" aria-hidden="true" d="M30 5z"/><path d="M568.4 466l16.8 13.7 16.8-.7" stroke="#bae4bc" aria-roledescription="line mark container"/></g><g><path class="background" aria-hidden="true" d="M30 5z"/><path d="M602 479l16.8 1.4 16.8 19.8 16.9-14.4 16.8.8 16.8 2.6 16.8-5.8 16.9 13 16.8-3.2 16.8 1 16.8 2.3 16.9-4.4 16.8 1 16.8-4.8 16.8-5 16.9-.7 16.8 11.6 16.8-7.6" stroke="#e8f7b0" aria-roledescription="line mark container"/></g><g><path class="background" aria-hidden="true" d="M30 5z"/><path d="M30 509.6l16.8-5.1 16.8 5 16.9-1.7 16.8-8.9H114l16.8-2.4h16.9l16.8-1.2 16.8 7.7 16.8-4.1 16.9 1.3 16.8-7 16.8-2 16.8-12.2 16.9.7 16.8 4.4 16.8 5.1 16.8-4.3 16.8 5.3 16.9-5.3 16.8 1.7 16.8-5.5 16.8 1.5 16.9 2.3 16.8-1.5 16.8 1.5 16.8 9.3 16.9 8.8h16.8l16.8-1.5 16.8-2.6 16.9-4.7 16.8-1 16.8 5.7 16.8 4 16.8 8.7 16.9 2 16.8-7.5 16.8-8.4 16.8 1.2 16.9-9.7 16.8 16.9 16.8-7.2 16.8 4h16.9l16.8 4.9 16.8-3.3 16.8 3.3 16.9 3.8 16.8-8.6 16.8 6.6" stroke="#e8f7b0" aria-roledescription="line mark container"/></g><g><path class="background" aria-hidden="true" d="M30 5z"/><path d="M30 501.5l16.8-3.8 16.8-1.2 16.9-9 16.8-14.1L114 477l16.8-7.5 16.9-14 16.8-5.6 16.8-.3 16.8-13.5 16.9-18 16.8-19.3 16.8-22.3 16.8-18.1 16.9-26.2" stroke="#e8f7b0" aria-roledescription="line mark container"/></g><g><path class="background" aria-hidden="true" d="M30 5z"/><path d="M282.4 332.2l16.8-9.1 16.8-14 16.8-29.4 16.8-5.3" stroke="#bae4bc" aria-roledescription="line mark container"/></g><g><path class="background" aria-hidden="true" d="M30 5z"/><path d="M349.6 274.4l16.9 25.3 16.8-6.4L400 309l16.8 36 16.9 52.2 16.8 15.5 16.8 5.3" stroke="#43a2ca" aria-roledescription="line mark container"/></g><g><path class="background" aria-hidden="true" d="M30 5z"/><path d="M467.4 418.1l16.8 30.2 16.9-4.8 16.8 10.2" stroke="#7bccc4" aria-roledescription="line mark container"/></g><g><path class="background" aria-hidden="true" d="M30 5z"/><path d="M517.9 453.7l16.8-6.6 16.8 8 16.9 32.4" stroke="#bae4bc" aria-roledescription="line mark container"/></g><g><path class="background" aria-hidden="true" d="M30 5z"/><path d="M568.4 487.5l16.8-1.7H602l16.8 10.7 16.8-2.3 16.9 13.6 16.8-10.1 16.8-4.5 16.8 7 16.9-11 16.8 4 16.8 11.3h16.8l16.9-16.2 16.8 4.9 16.8-9 16.8 12.3 16.9 6.5 16.8-6.5 16.8 11.3" stroke="#e8f7b0" aria-roledescription="line mark container"/></g><g><path class="background" aria-hidden="true" d="M30 5z"/><path d="M30 501.5h16.8l16.8 4.6 16.9-11.9 16.8-19 16.8-8.7L131 461l16.9-13.1 16.8-25.8 16.8-10.7 16.8-26.2 16.9-27.5 16.8-28" stroke="#e8f7b0" aria-roledescription="line mark container"/></g><g><path class="background" aria-hidden="true" d="M30 5z"/><path d="M231.9 329.8l16.8-15.6 16.8-26.5 16.9-39.3 16.8-22.1" stroke="#bae4bc" aria-roledescription="line mark container"/></g><g><path class="background" aria-hidden="true" d="M30 5z"/><path d="M299.2 226.3H316" stroke="#43a2ca" aria-roledescription="line mark container"/></g><g><path class="background" aria-hidden="true" d="M30 5z"/><path d="M316 226.3l16.8 33.6 16.8 49.2 16.9 28.9 16.8 19.3 16.8 44 16.8-6 16.9 40.8" stroke="#0868ac" aria-roledescription="line mark container"/></g><g><path class="background" aria-hidden="true" d="M30 5z"/><path d="M433.8 436.1l16.8 20.5 16.8 4.9" stroke="#43a2ca" aria-roledescription="line mark container"/></g><g><path class="background" aria-hidden="true" d="M30 5z"/><path d="M467.4 461.5l16.8 29.6 16.9-5.3 16.8-5.4" stroke="#7bccc4" aria-roledescription="line mark container"/></g><g><path class="background" aria-hidden="true" d="M30 5z"/><path d="M517.9 480.4l16.8 8.8 16.8 5 16.9-8.4" stroke="#bae4bc" aria-roledescription="line mark container"/></g><g><path class="background" aria-hidden="true" d="M30 5z"/><path d="M568.4 485.8l16.8-4.7 16.8-9.4 16.8 2.9 16.8 4.4 16.9-2.6 16.8-5.8 16.8-2.1 16.8 11.2 16.9-4 16.8 3.3 16.8 6 16.8 1.6 16.9-4.7 16.8-4.2 16.8 2 16.8 5.2h16.9l16.8-3.8 16.8 2.3" stroke="#e8f7b0" aria-roledescription="line mark container"/></g><g><path class="background" aria-hidden="true" d="M30 5z"/><path d="M30 506l16.8 1.8 16.8 1.8 16.9-8 16.8-6.3 16.8-4.2 16.8 2 16.9-7.3 16.8 6.3 16.8-10.2 16.8 1.5 16.9 3.2 16.8 1.7 16.8-3.4 16.8 6.2 16.9-6.2 16.8-.8 16.8 11.2 16.8 2.4h16.8l16.9 6.8 16.8-3 16.8-3.8 16.8 6.8 16.9-9.2 16.8 6.2 16.8 1.5h16.8l16.9-1.5 16.8 3h16.8l16.8-8 16.9 13 16.8 15.5 16.8-11.3 16.8-2.1 16.8 2 16.9 5 16.8-5L686 499H703l16.9-5.7 16.8 7 16.8-6 16.8-1 16.9 2.1 16.8-3.2 16.8 4.4 16.8 5 16.9-3.8 16.8 3.8 16.8 6.3" stroke="#e8f7b0" aria-roledescription="line mark container"/></g><g><path class="background" aria-hidden="true" d="M30 5z"/><path d="M30 503l16.8 3 16.8-4.5L80.5 485l16.8-2.3 16.8-17L131 454l16.9-5.7 16.8-13.2 16.8-21 16.8-6.7 16.9-20.5 16.8-27.4 16.8-35" stroke="#e8f7b0" aria-roledescription="line mark container"/></g><g><path class="background" aria-hidden="true" d="M30 5z"/><path d="M248.7 324.5l16.8-13.5 16.9-40 16.8-11.1" stroke="#bae4bc" aria-roledescription="line mark container"/></g><g><path class="background" aria-hidden="true" d="M30 5z"/><path d="M299.2 259.9l16.8 19.8 16.8 9.5 16.8-5.8 16.9 20.9 16.8-17L400 276l16.8 33 16.9 22.3 16.8-6.2 16.8 113 16.8-32.5 16.9 18.3" stroke="#43a2ca" aria-roledescription="line mark container"/></g><g><path class="background" aria-hidden="true" d="M30 5z"/><path d="M501 424l16.9 24.3 16.8-15 16.8 35.7" stroke="#7bccc4" aria-roledescription="line mark container"/></g><g><path class="background" aria-hidden="true" d="M30 5z"/><path d="M551.5 469l16.9 5 16.8 21.3 16.8 2.4" stroke="#bae4bc" aria-roledescription="line mark container"/></g><g><path class="background" aria-hidden="true" d="M30 5z"/><path d="M602 497.7l16.8-9.4 16.8 1 16.9 3.9h16.8l16.8-3 16.8 7.5 16.9-3.5 16.8-5.9 16.8-1.7 16.8-6.2 16.9 8.8 16.8-4.3 16.8-.8 16.8.8 16.9 3.4h16.8L888 499" stroke="#e8f7b0" aria-roledescription="line mark container"/></g><g><path class="background" aria-hidden="true" d="M30 5z"/><path d="M30 498.9l16.8-3.6L63.6 485l16.9-3.8 16.8-4.7 16.8-22.7 16.8-24 16.9-20 16.8-17.6 16.8-13 16.8-47.7 16.9-31.1" stroke="#e8f7b0" aria-roledescription="line mark container"/></g><g><path class="background" aria-hidden="true" d="M30 5z"/><path d="M215 300.3l16.9-45.6 16.8-2.1" stroke="#bae4bc" aria-roledescription="line mark container"/></g><g><path class="background" aria-hidden="true" d="M30 5z"/><path d="M248.7 252.6l16.8-4.2 16.9 2.8h16.8l16.8 32.2 16.8 7.8 16.8-18.6 16.9 10.8 16.8 1.9 16.8 10 16.8 24.2 16.9-10.4 16.8-27.6 16.8 13.9 16.8-4.2 16.9 15.5 16.8 2.4 16.8 36 16.8 41.4 16.9 5.2 16.8 19.8" stroke="#43a2ca" aria-roledescription="line mark container"/></g><g><path class="background" aria-hidden="true" d="M30 5z"/><path d="M585.2 411.5l16.8 27.6 16.8-5 16.8 19.6" stroke="#7bccc4" aria-roledescription="line mark container"/></g><g><path class="background" aria-hidden="true" d="M30 5z"/><path d="M635.6 453.7l16.9 15.3 16.8 19.3 16.8 2.8" stroke="#bae4bc" aria-roledescription="line mark container"/></g><g><path class="background" aria-hidden="true" d="M30 5z"/><path d="M686.1 491.1l16.8-5.3 16.9 5.3 16.8-4.5 16.8-2.5 16.8 5.1 16.9-12.2 16.8 8 16.8-1.6 16.8 1.5h16.9l16.8 14 16.8-7.8" stroke="#e8f7b0" aria-roledescription="line mark container"/></g><g><path class="background" aria-hidden="true" d="M30 5z"/><path d="M30 513.7l16.8 2.3 16.8-8.2 16.9 21.4 16.8-15.5L114 525l16.8-19 16.9 12.6 16.8-15.6 16.8 4.8 16.8-7.6 16.9-9 16.8-8.6 16.8-.7 16.8-2.2h16.9l16.8 4.4L316 482l16.8 3.9 16.8-9.4 16.9 12.8 16.8-4.3 16.8-3 16.8-4.2 16.9-6h16.8l16.8 1.1 16.8 11.3 16.9 5.1 16.8 4 16.8 7 16.8 18.4h16.9l16.8 3 16.8 7.6h33.6l16.9-7.6 16.8 3.4 16.8 4.2H703l16.9 13.4 16.8 42.4h16.8l16.8-55.8 16.9 55.8 16.8-42.4h16.8l16.8-8 16.9 8h16.8l16.8-8" stroke="#e8f7b0" aria-roledescription="line mark container"/></g><g><path class="background" aria-hidden="true" d="M30 5z"/><path d="M30 511.6l16.8 2 16.8 8 16.9 3.4 16.8-11.3 16.8-6 16.8-6.2 16.9-6.2 16.8-14.9 16.8-8.2 16.8-2.2 16.9.6 16.8-1.6 16.8-8.4 16.8 1.7 16.9.5 16.8-9.5 16.8.7 16.8 9.2 16.8 1 16.9-6 16.8-2.3 16.8 8.7 16.8-.5 16.9-.4 16.8-3.5 16.8-1.2 16.8 8 16.9-2.9 16.8 4.4 16.8 2.6 16.8-3.6 16.9 9.5 16.8-1.2 16.8 4.6 16.8 15 16.8 9 16.9 17.2 16.8 7.6 16.8-10.6 16.8-12.5 16.9 12.5 16.8 24 16.8 42.4 16.8-60 16.9 4.2 16.8-7.6 16.8 3.4 16.8 4.2 16.9 5.4 16.8 8H888" stroke="#e8f7b0" aria-roledescription="line mark container"/></g><g><path class="background" aria-hidden="true" d="M30 5z"/><path d="M30 511.6l16.8-11.4 16.8-3.7 16.9-13.1 16.8-2.3L114 462l16.8-13.3 16.9-25 16.8-22.3 16.8-24.4 16.8-29.9" stroke="#e8f7b0" aria-roledescription="line mark container"/></g><g><path class="background" aria-hidden="true" d="M30 5z"/><path d="M198.2 347l16.9-13.2 16.8-27.7 16.8-4.1 16.8-54.9 16.9-19.7" stroke="#bae4bc" aria-roledescription="line mark container"/></g><g><path class="background" aria-hidden="true" d="M30 5z"/><path d="M282.4 227.4l16.8 17" stroke="#43a2ca" aria-roledescription="line mark container"/></g><g><path class="background" aria-hidden="true" d="M30 5z"/><path d="M299.2 244.4L316 278l16.8 36.3 16.8 2.6 16.9 17.8 16.8 57 16.8 23.8 16.8-25.5" stroke="#0868ac" aria-roledescription="line mark container"/></g><g><path class="background" aria-hidden="true" d="M30 5z"/><path d="M417 390l16.8 15.7 16.8 49.4h16.8" stroke="#43a2ca" aria-roledescription="line mark container"/></g><g><path class="background" aria-hidden="true" d="M30 5z"/><path d="M467.4 455.1l16.8 14.4 16.9 18.8 16.8-11.9" stroke="#7bccc4" aria-roledescription="line mark container"/></g><g><path class="background" aria-hidden="true" d="M30 5z"/><path d="M517.9 476.4l16.8 2 16.8-.7" stroke="#bae4bc" aria-roledescription="line mark container"/></g><g><path class="background" aria-hidden="true" d="M30 5z"/><path d="M551.5 477.7l16.9 3.4 16.8-4.7 16.8 9.4 16.8-9.4 16.8 2.6 16.9 4.4 16.8-7.6L686 481l16.8 7.2 16.9 10.6 16.8 7.2 16.8 28.5 16.8-18.6 16.9 2.6 16.8-5 16.8-2 16.8 10 16.9-5.6 16.8 26.6 16.8-13.4" stroke="#e8f7b0" aria-roledescription="line mark container"/></g><g><path class="background" aria-hidden="true" d="M30 5z"/><path d="M30 511.6h16.8l16.8-3.8 16.9-6.3 16.8 3 16.8-3 16.8 3 16.9 9.2 16.8 5 16.8-2.7 16.8-2.3 16.9 7.9 16.8-13.8h16.8l16.8 1.8 16.9 2 16.8-2L316 506l16.8-6 16.8 2.9 16.9-5.3 16.8 2.5 16.8 7.6 16.8-6.3 16.9 12.2 16.8 7.9 16.8-5.6 16.8 5.6 16.9-3 16.8 16h33.6l16.9-5.4h16.8l16.8 13.4 16.8 42.4 16.8-42.4 16.9 42.4H686l16.8-60 16.9 4.2 16.8-10.6 16.8 3 16.8 7.6 16.9-4.2 16.8 4.2h16.8l16.8-4.2h16.9l16.8-13.4 16.8 2" stroke="#e8f7b0" aria-roledescription="line mark container"/></g><g><path class="background" aria-hidden="true" d="M30 5z"/><path d="M30 497.7l16.8-1.2 16.8-5.4 16.9-12 16.8-7.4L114 457l16.8-2.6 16.9-17 16.8-3.2 16.8-14 16.8-17.3 16.9-5.6 16.8-26.6 16.8-30.1 16.8-12.4" stroke="#e8f7b0" aria-roledescription="line mark container"/></g><g><path class="background" aria-hidden="true" d="M30 5z"/><path d="M265.5 328.2l16.9-15.3 16.8-29.5 16.8 20.9 16.8-38.2" stroke="#bae4bc" aria-roledescription="line mark container"/></g><g><path class="background" aria-hidden="true" d="M30 5z"/><path d="M332.8 266l16.8 17.4h16.9l16.8 30.8 16.8 31 16.8 30.6 16.9 29.9" stroke="#43a2ca" aria-roledescription="line mark container"/></g><g><path class="background" aria-hidden="true" d="M30 5z"/><path d="M433.8 405.7l16.8-6.4 16.8 39.8 16.8-1" stroke="#7bccc4" aria-roledescription="line mark container"/></g><g><path class="background" aria-hidden="true" d="M30 5z"/><path d="M484.2 438.1l16.9-4 16.8 10.6 16.8 1.1" stroke="#bae4bc" aria-roledescription="line mark container"/></g><g><path class="background" aria-hidden="true" d="M30 5z"/><path d="M534.7 445.8l16.8 1.3 16.9 11.5 16.8 28 16.8-2.5 16.8 6h16.8l16.9 17.7 16.8-14.6 16.8-1 16.8 9.3 16.9-1.3 16.8 11.4 16.8 13.4 16.8 17.6 16.9-13.4 16.8 13.4 16.8-13.4 16.8-4.2h16.9l16.8 60 16.8-60" stroke="#e8f7b0" aria-roledescription="line mark container"/></g><g><path class="background" aria-hidden="true" d="M30 5z"/><path d="M30 503l16.8 1.5 16.8-11.3 16.9-15.5 16.8-7.1 16.8-14 16.8-14.5 16.9-21.9 16.8-17.8 16.8-15.5 16.8 4.8 16.9-20" stroke="#e8f7b0" aria-roledescription="line mark container"/></g><g><path class="background" aria-hidden="true" d="M30 5z"/><path d="M215 371.7l16.9-13.3 16.8-6.4 16.8-14.9 16.9-34 16.8-30.5L316 260" stroke="#bae4bc" aria-roledescription="line mark container"/></g><g><path class="background" aria-hidden="true" d="M30 5z"/><path d="M316 259.9l16.8 21.6 16.8 5.7 16.9 12.5h16.8l16.8 7L417 309l16.9 13.2 16.8 45.5 16.8 8 16.8-4" stroke="#43a2ca" aria-roledescription="line mark container"/></g><g><path class="background" aria-hidden="true" d="M30 5z"/><path d="M484.2 371.7l16.9-10 16.8-5.5 16.8 12.9 16.8-14" stroke="#7bccc4" aria-roledescription="line mark container"/></g><g><path class="background" aria-hidden="true" d="M30 5z"/><path d="M551.5 355.1l16.9-5.1 16.8 7.3L602 373l16.8-18 16.8 20.7 16.9 6 16.8-10 16.8 7" stroke="#bae4bc" aria-roledescription="line mark container"/></g><g><path class="background" aria-hidden="true" d="M30 5z"/><path d="M686.1 378.7H703" stroke="#e8f7b0" aria-roledescription="line mark container"/></g><g><path class="background" aria-hidden="true" d="M30 5z"/><path d="M703 378.7l16.8 7.8 16.8 8.9 16.8 26.3 16.8 15.4" stroke="#bae4bc" aria-roledescription="line mark container"/></g><g><path class="background" aria-hidden="true" d="M30 5z"/><path d="M770.2 437.1l16.9 2 16.8-4 16.8 15.8 16.8-17.6 16.9 21.8 16.8 42.6L888 503" stroke="#e8f7b0" aria-roledescription="line mark container"/></g><g><path class="background" aria-hidden="true" d="M30 5z"/><path d="M30 496.5l16.8 1.2 16.8-1.2 16.9 1.2 16.8 1.2 16.8 5.6 16.8-9.2h16.9l16.8 3.6 16.8 17.1 16.8-11.5 16.9 11.5 16.8-11.5 16.8 9.2 16.8-7.6 16.9 15.5 16.8-8L316 585l16.8-60 16.8 4.2 16.9 55.8H433.8l16.8-42.4 16.8 42.4 16.8-42.4 16.9-17.6h16.8l16.8-6.4 16.8 6.4 16.9-9 16.8 2.6L602 516l16.8 9 16.8 60 16.9-66.4 16.8-12.5 16.8 19 16.8-3.5 16.9 3.4h16.8l16.8-15.4 16.8 19.6 16.9-7.6h16.8l16.8 3.4 16.8-3.4 16.9-3 16.8 10.6 16.8-10.6" stroke="#e8f7b0" aria-roledescription="line mark container"/></g><g><path class="background" aria-hidden="true" d="M30 5z"/><path d="M30 489.2l16.8 1 16.8-6 16.9-9.6 16.8-7.1 16.8-10.9 16.8 4.5 16.9-6 16.8-24.8 16.8-10 16.8-10 16.9-18.6 16.8-44.7 16.8-5.5" stroke="#e8f7b0" aria-roledescription="line mark container"/></g><g><path class="background" aria-hidden="true" d="M30 5z"/><path d="M248.7 341.5l16.8-5.2 16.9-11 16.8-9.8 16.8-3.9 16.8-18.3 16.8-25.6" stroke="#bae4bc" aria-roledescription="line mark container"/></g><g><path class="background" aria-hidden="true" d="M30 5z"/><path d="M349.6 267.7l16.9-1.6 16.8 29.3L400 309l16.8-2.4 16.9 21.5 16.8 10.6 16.8 64.7 16.8-20.2 16.9 10.2" stroke="#43a2ca" aria-roledescription="line mark container"/></g><g><path class="background" aria-hidden="true" d="M30 5z"/><path d="M501 393.5l16.9 1.9 16.8-16.7" stroke="#7bccc4" aria-roledescription="line mark container"/></g><g><path class="background" aria-hidden="true" d="M30 5z"/><path d="M534.7 378.7l16.8-7h16.9l16.8 27.6L602 418l16.8 14.2" stroke="#bae4bc" aria-roledescription="line mark container"/></g><g><path class="background" aria-hidden="true" d="M30 5z"/><path d="M618.8 432.3l16.8 21.4 16.9-9 16.8 7.6 16.8 17.2 16.8 24.7 16.9 3.5 16.8-3.5 16.8 2.3 16.8 6.5h16.9l16.8 10.7 16.8-7.6 16.8 3.5 16.9-3.5 16.8 3.5L888 516" stroke="#e8f7b0" aria-roledescription="line mark container"/></g><g><path class="background" aria-hidden="true" d="M30 5z"/><path d="M30 490.2l16.8-3.6 16.8-10.2 16.9-17 16.8-15.9 16.8-27.8 16.8-10 16.9-15.8 16.8-36.9 16.8-2" stroke="#e8f7b0" aria-roledescription="line mark container"/></g><g><path class="background" aria-hidden="true" d="M30 5z"/><path d="M181.4 351l16.8-34.9 16.9-48 16.8-43" stroke="#bae4bc" aria-roledescription="line mark container"/></g><g><path class="background" aria-hidden="true" d="M30 5z"/><path d="M231.9 225.2l16.8 5.7" stroke="#43a2ca" aria-roledescription="line mark container"/></g><g><path class="background" aria-hidden="true" d="M30 5z"/><path d="M248.7 230.9l16.8 23.1 16.9 45.7 16.8 11.9 16.8 16.6 16.8 67.2 16.8 22.7 16.9 23.2" stroke="#0868ac" aria-roledescription="line mark container"/></g><g><path class="background" aria-hidden="true" d="M30 5z"/><path d="M366.5 441.3l16.8 18.5 16.8-17.4 16.8 8.5" stroke="#43a2ca" aria-roledescription="line mark container"/></g><g><path class="background" aria-hidden="true" d="M30 5z"/><path d="M417 451l16.8 16 16.8 14.1 16.8-4" stroke="#7bccc4" aria-roledescription="line mark container"/></g><g><path class="background" aria-hidden="true" d="M30 5z"/><path d="M467.4 477l16.8-8 16.9-1.5 16.8 5.3" stroke="#bae4bc" aria-roledescription="line mark container"/></g><g><path class="background" aria-hidden="true" d="M30 5z"/><path d="M517.9 472.8l16.8-10.5 16.8 3.7 16.9-4.5 16.8 2.6L602 469l16.8-1 16.8 2 16.9-1 16.8 10 16.8-5 16.8 3.7 16.9 8 16.8-.8 16.8.9 16.8-1.7 16.9 3.4h16.8l16.8 5.7 16.8 3.3h16.9l16.8 8H888" stroke="#e8f7b0" aria-roledescription="line mark container"/></g><g><path class="background" aria-hidden="true" d="M30 5z"/><path d="M30 503l16.8 1.5h16.8l16.9-1.5L97.3 491l16.8 9 16.8-10 16.9-2.6 16.8-11 16.8-7 16.8-3.5 16.9 13 16.8-7.3 16.8 5.3 16.8-3.6 16.9-5 16.8 6.8 16.8-.6 16.8 3.8h16.8l16.9-1.4 16.8.7 16.8 3.4 16.8 9 16.9 1 16.8-1 16.8-6.7 16.8 3.2 16.9-5.5 16.8-2.7 16.8 9 16.8-7.7h16.9l16.8-4.5 16.8 13.1 16.8 1 16.8 5 16.9 15.3 16.8-9.4 16.8 9.4 16.8-9.4 16.9 7.6 16.8 10.8 16.8-7h16.8l16.9 4.4 16.8-4.4 16.8-3.8 16.8 17.2 16.9 9.6 16.8-13 16.8 21" stroke="#e8f7b0" aria-roledescription="line mark container"/></g><g><path class="background" aria-hidden="true" d="M30 5z"/><path d="M30 503l16.8 15.6 16.8-10.8 16.9 1.8 16.8-9.4 16.8 4.3L131 491l16.9 16.7 16.8-10.1 16.8-6.6 16.8 4.2 16.9-12 16.8 8.8 16.8-4.6 16.8 11.4 16.9-17 16.8 14.6 16.8-7.3 16.8-5.8 16.8-10 16.9-8.8 16.8-1.4 16.8 2.3 16.8-.4 16.9 3.9 16.8 6.8 16.8-2.4 16.8-8.3 16.9 1 16.8-1 16.8 2.4 16.8 2 16.9 2.7 16.8-4.7 16.8.5 16.8 12.4 16.8-.7 16.9 6 16.8 5.4 16.8-2.8 16.8 4.9 16.9-2 16.8-1h16.8l16.8 1 16.9-2.9 16.8 19.5 16.8-3.3 16.8 1.6 16.9 5.5 16.8-3.8 16.8 3.8" stroke="#e8f7b0" aria-roledescription="line mark container"/></g><g><path class="background" aria-hidden="true" d="M30 5z"/><path d="M30 494.2l16.8-10.8 16.8-3 16.9-17.6 16.8-8 16.8-24.3 16.8-13.8 16.9-23.7 16.8-17.9 16.8-26.1" stroke="#e8f7b0" aria-roledescription="line mark container"/></g><g><path class="background" aria-hidden="true" d="M30 5z"/><path d="M181.4 349l16.8-16.8 16.9-25.5 16.8-43.8 16.8-48.3" stroke="#bae4bc" aria-roledescription="line mark container"/></g><g><path class="background" aria-hidden="true" d="M30 5z"/><path d="M248.7 214.6h16.8l16.9 23.5" stroke="#43a2ca" aria-roledescription="line mark container"/></g><g><path class="background" aria-hidden="true" d="M30 5z"/><path d="M282.4 238l16.8 47.3 16.8 46 16.8 6.7 16.8 33.7 16.9 38.6 16.8-11" stroke="#0868ac" aria-roledescription="line mark container"/></g><g><path class="background" aria-hidden="true" d="M30 5z"/><path d="M383.3 399.3l16.8 62.2 16.8-10.6 16.9-7.4" stroke="#43a2ca" aria-roledescription="line mark container"/></g><g><path class="background" aria-hidden="true" d="M30 5z"/><path d="M433.8 443.5l16.8-6.4 16.8-8.3 16.8.9" stroke="#7bccc4" aria-roledescription="line mark container"/></g><g><path class="background" aria-hidden="true" d="M30 5z"/><path d="M484.2 429.7l16.9-5 16.8-18 16.8-.5" stroke="#bae4bc" aria-roledescription="line mark container"/></g><g><path class="background" aria-hidden="true" d="M30 5z"/><path d="M534.7 406.2l16.8 10.5 16.9-4 16.8-1.2 16.8.7 16.8 16.6 16.8-5.6 16.9.8 16.8-3.8 16.8-2.1 16.8 17 16.9 5 16.8 9.5 16.8 9.4 16.8 29.3 16.9-5 16.8 3.3 16.8 1.7 16.8 1 16.9 12.2 16.8-14 16.8 14" stroke="#e8f7b0" aria-roledescription="line mark container"/></g><g><path class="background" aria-hidden="true" d="M30 5z"/><path d="M30 507.8l16.8 10.8 16.8-9 16.9-14.3 16.8-7 16.8 1 16.8-3.5 16.9 1.7 16.8-1.7 16.8-4.7 16.8-5.3 16.9 4 16.8.6 16.8 5.4 16.8-2.4 16.9-5h16.8L316 471l16.8.6 16.8-1.7 16.9 13.4 16.8-3L400 482l16.8 6.4h16.9l16.8-1.7 16.8-2.5 16.8-2.2 16.9-1.5 16.8 10.7 16.8 3.1 16.8-5 16.9 3 16.8 3.1 16.8 12.5 16.8-3.3 16.8 9.2 16.9 11.3 16.8-13.4L686 525l16.8-15.4 16.9 12 16.8-8 16.8-14.7 16.8 5.6 16.9 9.2 16.8-13.5 16.8 13.5 16.8-7.6 16.9 23 16.8-10.5 16.8-5" stroke="#e8f7b0" aria-roledescription="line mark container"/></g><g><path class="background" aria-hidden="true" d="M30 5z"/><path d="M30 501.5l16.8 12.2 16.8-6 16.9-6.2 16.8 8L114 503l16.8 1.5 16.9 1.6 16.8 3.5 16.8-15.4 16.8-4 16.9-6 16.8 4.1 16.8-8.6h16.8l16.9 4.4 16.8-11.3 16.8-1.7 16.8 4.7 16.8.6 16.9-8 16.8 14.2 16.8 8.5 16.8-7 16.9-11.3 16.8 1.8 16.8-3 16.8 4.2 16.9-6.8 16.8-3 16.8 8.6 16.8 1.2 16.9 2.6 16.8-2L602 479l16.8-1.3 16.8-1.3 16.9 9.4 16.8 13.1 16.8-6.8 16.8 5.6 16.9 8.4 16.8-11.9 16.8 7.3 16.8-5 16.9-3.3 16.8-3 16.8 10 16.8 5.9 16.9 7.6 16.8 5 16.8-7.1" stroke="#e8f7b0" aria-roledescription="line mark container"/></g><g><path class="background" aria-hidden="true" d="M30 5z"/><path d="M30 492.1l16.8-2.9 16.8-9.5 16.9-6.9 16.8-18L114 448l16.8-20.8 16.9-23.7 16.8-30.4 16.8-41h16.8" stroke="#e8f7b0" aria-roledescription="line mark container"/></g><g><path class="background" aria-hidden="true" d="M30 5z"/><path d="M198.2 332.2l16.9-39 16.8-9.8h16.8" stroke="#bae4bc" aria-roledescription="line mark container"/></g><g><path class="background" aria-hidden="true" d="M30 5z"/><path d="M248.7 283.4l16.8 51.2 16.9-39.2 16.8 27 16.8-2.9 16.8 11.9 16.8 34 16.9 17.9 16.8 1.6" stroke="#43a2ca" aria-roledescription="line mark container"/></g><g><path class="background" aria-hidden="true" d="M30 5z"/><path d="M383.3 384.9l16.8-17 16.8-19h16.9l16.8-1 16.8 11.6h16.8l16.9 1.1 16.8-2.2 16.8 3.4 16.8-2.3 16.9-5.5" stroke="#7bccc4" aria-roledescription="line mark container"/></g><g><path class="background" aria-hidden="true" d="M30 5z"/><path d="M568.4 354l16.8-14.3 16.8 18.7 16.8 7 16.8-3.6 16.9-1.2 16.8 13.8 16.8 4.3 16.8-5.6 16.9 4.2 16.8 3 16.8 4.6h16.8" stroke="#bae4bc" aria-roledescription="line mark container"/></g><g><path class="background" aria-hidden="true" d="M30 5z"/><path d="M770.2 384.9l16.9 38.3 16.8 20.3 16.8 7.4 16.8-6.2 16.9 59.8 16.8-18.7 16.8 2.5" stroke="#e8f7b0" aria-roledescription="line mark container"/></g><g><path class="background" aria-hidden="true" d="M30 5z"/><path d="M30 500.2l16.8 2.8 16.8 15.6 16.9-10.8 16.8-4.8 16.8-7.7 16.8 1.2 16.9-2.3 16.8-3 16.8 18.4 16.8-6.6 16.9-7.7 16.8-7.8 16.8-4.9 16.8 10.6 16.9 8.3 16.8 1.5 16.8 22 16.8-11.3 16.8-6 16.9 3.9H400L417 516l16.9-4.4 16.8-8.6 16.8 22 16.8 4.2 16.9 13.4 16.8-8h16.8l16.8 8h16.9l16.8 42.4 16.8-42.4 16.8-17.6 16.8 60 16.9-42.4h16.8l16.8-13.4H703l16.9-21.4 16.8 1.8 16.8 19.6 16.8-4.2 16.9-11.3 16.8 20.9h16.8l16.8-5.4 16.9 55.8 16.8-60H888" stroke="#e8f7b0" aria-roledescription="line mark container"/></g><g><path class="background" aria-hidden="true" d="M30 5z"/><path d="M30 503l16.8 18.6 16.8-26.3 16.9-7 16.8-.8 16.8-11L131 479l16.9-5.6 16.8-9.7 16.8-3.9 16.8-9.9 16.9-10.2 16.8-14.2 16.8-9.5 16.8-5.7 16.9-31.6 16.8-25.7" stroke="#e8f7b0" aria-roledescription="line mark container"/></g><g><path class="background" aria-hidden="true" d="M30 5z"/><path d="M299.2 353l16.8 7.6 16.8-23.5 16.8-14.8 16.9-32.6 16.8 3.6 16.8-10L417 278l16.9-28" stroke="#bae4bc" aria-roledescription="line mark container"/></g><g><path class="background" aria-hidden="true" d="M30 5z"/><path d="M433.8 249.8l16.8 22.8 16.8 16.6 16.8 22.4 16.9 2.6 16.8 72.3 16.8 28.9 16.8-22" stroke="#43a2ca" aria-roledescription="line mark container"/></g><g><path class="background" aria-hidden="true" d="M30 5z"/><path d="M551.5 393.5l16.9 54.8 16.8-4.8 16.8 8.8" stroke="#7bccc4" aria-roledescription="line mark container"/></g><g><path class="background" aria-hidden="true" d="M30 5z"/><path d="M602 452.3l16.8 2.8 16.8 40.2 16.9 1.2" stroke="#bae4bc" aria-roledescription="line mark container"/></g><g><path class="background" aria-hidden="true" d="M30 5z"/><path d="M652.5 496.5l16.8-1.2H686l16.8 4.9 16.9-4.9 16.8 2.4 16.8 11.9h16.8l16.9 15.4 16.8-19 16.8 19 16.8-6.4 16.9 24 16.8-13.4H888" stroke="#e8f7b0" aria-roledescription="line mark container"/></g><g><path class="background" aria-hidden="true" d="M30 5z"/><path d="M30 498.9L46.8 516h16.8l16.9-6.4 16.8-13.1 16.8-11.6 16.8-11.5 16.9-8.8 16.8-7.2 16.8-34 16.8-15.5 16.9-13.5 16.8-21 16.8-25.4" stroke="#e8f7b0" aria-roledescription="line mark container"/></g><g><path class="background" aria-hidden="true" d="M30 5z"/><path d="M248.7 348l16.8 2 16.9-28.4 16.8-29.4 16.8-41 16.8 19.8" stroke="#bae4bc" aria-roledescription="line mark container"/></g><g><path class="background" aria-hidden="true" d="M30 5z"/><path d="M332.8 271l16.8 10.5 16.9-12.2 16.8 8.6 16.8 7.4 16.8 6 16.9-13.4 16.8 11.3 16.8 15.1 16.8 12.5 16.9 30.2 16.8 19.6 16.8-13.6 16.8 18.7" stroke="#43a2ca" aria-roledescription="line mark container"/></g><g><path class="background" aria-hidden="true" d="M30 5z"/><path d="M551.5 371.7l16.9 7 16.8-20.3 16.8-14.2" stroke="#7bccc4" aria-roledescription="line mark container"/></g><g><path class="background" aria-hidden="true" d="M30 5z"/><path d="M602 344.2l16.8 22.4 16.8-16.6 16.9 6.2 16.8 3.3 16.8 19.2 16.8-17 16.9 23.2 16.8-7.6 16.8 14.4 16.8-15.9" stroke="#bae4bc" aria-roledescription="line mark container"/></g><g><path class="background" aria-hidden="true" d="M30 5z"/><path d="M770.2 375.8l16.9-5.4" stroke="#e8f7b0" aria-roledescription="line mark container"/></g><g><path class="background" aria-hidden="true" d="M30 5z"/><path d="M787 370.4l16.9 35.3 16.8-2.2 16.8 65.5 16.9-8.4" stroke="#bae4bc" aria-roledescription="line mark container"/></g><g><path class="background" aria-hidden="true" d="M30 5z"/><path d="M854.4 460.6l16.8 38.3 16.8 1.3" stroke="#e8f7b0" aria-roledescription="line mark container"/></g></g></g></svg>