<svg xmlns="http://www.w3.org/2000/svg" class="marks" width="965" height="582"><g class="mark-group role-frame root" aria-roledescription="group mark container" fill="none" stroke-miterlimit="10"><path class="background" aria-hidden="true" d="M30 5h933v560H30z"/><g class="mark-rule role-mark" aria-roledescription="rule mark container"><path d="M30 565V5"/><path stroke="#012a58" stroke-opacity=".1" d="M263.25 565V5M496.5 565V5M729.75 565V5"/></g><g class="mark-text role-mark" aria-roledescription="text mark container" font-family="sans-serif" font-size="11" fill="#012a58"><text transform="translate(37.5 14)">Phase 1</text><text transform="translate(270.75 14)">Phase 2a</text><text transform="translate(504 14)">Phase 2b</text><text transform="translate(737.25 14)">Phase 3</text></g><g class="mark-group role-scope" aria-roledescription="group mark container"><path class="background" aria-hidden="true" d="M30 5z"/><path d="M30 553.67141h17.9423l17.94232.93614 17.9423 2.09944 17.94231-1.04676h17.9423l17.94232 1.04676 17.9423 1.34708 17.94231-1.34708 17.9423 1.4559 17.94232 1.83205L227.36538 565h53.82692l17.94232-5.00506L317.07692 565l17.94231-5.00506L352.96153 565h17.94232l17.9423-5.00506L406.78846 565l17.9423-5.00506 17.94232-1.72107 17.9423 1.72107h17.94231l17.94231-3.1121 17.9423 1.17123 17.94232-1.34708 17.9423-2.09944h17.94231l17.9423 2.09944 17.94232-1.04676 17.9423-1.05268 17.94231 2.09944 17.9423.08735 17.94232-2.18679h17.9423l17.94231 2.09944H729.75l17.9423-2.09944 17.94232-2.36605 17.9423-.83768 17.94231.78654 17.9423-1.29653 17.94232-.61817 17.9423-1.65012 17.94231 2.31372 17.9423 1.35363 17.94232-3.12748 17.9423.48133 17.94231.54317L963 549.00888v-25.71323l-17.9423-2.48828-17.94232.54307-17.9423-5.38207-17.94231 3.45084-17.9423 3.17256-17.94232.86093h-17.9423l-17.94231 2.51437-17.9423.567-17.94232 2.16287-17.9423 3.24643-17.94231.68108-17.94231-.24524-17.9423-.67497-17.94232 1.87355-17.9423-2.1106-17.94231 1.62122-17.9423.01672-17.94232.4897h-17.9423l-17.94231 1.25813-17.9423 1.53502-17.94232.58027-17.9423 1.41458-17.94231-.5563-17.94231.30732-17.9423.86276-17.94232-.86276H424.73077l-17.9423-.61044-17.94232.61044-17.9423 2.469-17.94231.04648h-17.9423l-17.94232.30477-17.9423-.6736-17.94231.6736-17.94231.69749-17.9423-1.02551-17.94232-.32272-17.9423-1.004-17.94231.0436-17.9423 1.2599-17.94232.32763-17.9423-.28116-17.94231.32841h-17.9423L83.82691 544.28l-17.9423-1.23047-17.94231 2.04344L30 552.87584z" fill="#414487" fill-opacity=".2" aria-roledescription="area mark container"/><path d="M30 553.67141l17.9423-4.10617 17.94232-.5952 17.9423.8828 17.94231-.8828 17.9423-.53213h17.94232l17.9423.53213 17.94231.27434 17.9423-.80647 17.94232.53213 17.9423-.53213 17.94231.53213 17.94231-.26872 17.9423.26872h17.94232l17.9423-.53213 17.94231-.25838 17.9423-.50273 17.94232-.7558 17.9423 1.0049 17.94231-.76866 17.9423-.23624 17.94232.23624 17.9423.76866 17.94231-.52853 17.94231-.24013 17.9423-1.39584h17.94232l17.9423-2.06643 17.94231-.56603 17.9423-1.98491h17.94232l17.9423-1.3153 17.94231.15699 17.9423.99202 17.94232-.16489 17.9423-.34878 17.94231.18526 17.94231.32841 17.9423-1.45945 17.94232-2.53044 17.9423-.828 17.94231-1.82123 17.9423-1.33366 17.94232-.36408 17.9423-1.1422h17.94231l17.9423 1.2575 17.94232-.2301 17.9423-.4543 17.94231.22618 17.94231.5906" stroke="#414487" stroke-width="2" aria-roledescription="line mark container"/><path class="background" aria-hidden="true" d="M30 5z"/><path d="M30 553.67141l17.9423.05947 17.94232-.05947 17.9423-.79557 17.94231-1.47202 17.9423-.60032 17.94232-.0449 17.9423-1.71076 17.94231.5989 17.9423 1.20184 17.94232-1.28334 17.9423-2.61072 17.94231.0336 17.94231-.0336 17.9423-.9429 17.94232-1.30105 17.9423.44203 17.94231-2.39127 17.9423-1.42551 17.94232.7869 17.9423.69067 17.94231-2.16406 17.9423-.27725 17.94232.62933 17.9423-.99317 17.94231-.3353 17.94231-.2644 17.9423.2644 17.94232-.61182 17.9423-.02152 17.94231-.86445 17.9423-.85157 17.94232-.87822 17.9423-.73525 17.94231.44975 17.9423.30466 17.94232-.56805 17.9423.58722 17.94231.80013 17.94231 1.45669 17.9423-1.75266 17.94232-2.73685 17.9423 1.14557 17.94231-1.2503 17.9423-1.7345 17.94232.4768 17.9423 1.0495 17.94231-1.21489 17.9423 2.6734 17.94232-1.51029 17.9423-1.70166 17.94231 2.4542L963 534.8709v-48.7148l-17.9423-7.17468-17.94232 1.13355-17.9423 7.25343-17.94231.33931-17.9423-2.80671-17.94232 2.56336-17.9423 2.33623-17.94231 5.87264-17.9423-1.38837-17.94232 2.98457-17.9423 5.63553-17.94231 3.41148-17.94231.07151-17.9423-2.63112-17.94232.4314-17.9423-.02279-17.94231.43499-17.9423-.08425-17.94232.08425-17.9423-2.13813-17.94231 1.6424-17.9423.82642-17.94232.53536-17.9423 4.18911-17.94231 2.50858L496.5 510.14438l-17.9423.42449-17.94232.09585-17.9423 3.6373-17.94231 1.66635-17.9423 1.17427-17.94232-.69672-17.9423 3.00574-17.94231 1.09835-17.9423-2.62534-17.94232 7.11492-17.9423 2.46744-17.94231 1.40489-17.94231 1.46001-17.9423.42682-17.94232-.65285-17.9423 1.3213-17.94231-1.50084-17.9423 1.73788-17.94232.93664-17.9423-.2291-17.94231 1.68228-17.9423 2.58224-17.94232 2.3418-17.9423 1.95964-17.94231 3.73283L30 552.87584z" fill="#2A788E" fill-opacity=".2" aria-roledescription="area mark container"/><path d="M30 553.67141l17.9423-4.70137 17.94232-1.04414 17.9423-1.4664 17.94231-2.37673 17.9423-2.06021 17.94232-2.03684 17.9423-1.0962 17.94231-.29701 17.9423-.74562 17.94232.28696 17.9423-1.146 17.94231.27612 17.94231.29962 17.9423-.14032 17.94232-1.9165 17.9423-1.16815 17.94231-1.45005 17.9423-.8168 17.94232-1.89583 17.9423-1.46472 17.94231 1.04709 17.9423-.9469 17.94232-.20003 17.9423.92566 17.94231-.10268 17.94231-.30589 17.9423-.21655 17.94232-1.10137 17.9423-3.46211 17.94231.17456 17.9423-2.41207 17.94232-2.87508 17.9423 1.24733 17.94231-2.46485 17.9423.30337h17.94232l17.9423.60341 17.94231-.6034 17.94231 1.84014 17.9423-.6235h17.94232l17.9423-3.5502 17.94231-2.7269 17.9423-3.31474 17.94232-.72384 17.9423-.4874 17.94231-.94323 17.9423-1.38024 17.94232.45563 17.9423-.23235 17.94231-.22328L963 505.28736" stroke="#2A788E" stroke-width="2" aria-roledescription="line mark container"/><g><path class="background" aria-hidden="true" d="M30 5z"/><path d="M30 553.67141h17.9423l17.94232-2.22006 17.9423-2.40351 17.94231-3.03621 17.9423-.88887 17.94232-5.69232 17.9423-4.25277 17.94231-5.1964 17.9423-7.17628 17.94232-12.29701 17.9423-6.70593 17.94231-6.79853 17.94231 6.83626 17.9423 16.38832 17.94232 5.45273 17.9423 6.55231 17.94231-2.6078 17.9423 5.75291 17.94232 3.36226 17.9423-4.10167 17.94231 2.42756 17.9423-2.67506 17.94232-1.2192 17.9423.25278 17.94231-2.74878L496.5 529.37585l17.9423-2.9878 17.94232-3.81989 17.9423-.36393 17.94231-3.70357 17.9423-5.5807 17.94232-9.70283 17.9423 4.739 17.94231-3.7679 17.9423-3.303 17.94232 8.43047 17.9423 8.58818 17.94231 1.1174 17.94231 3.83127 17.9423 1.30987 17.94232 1.51841 17.9423 2.3105 17.94231-2.3105 17.9423 1.09364 17.94232-1.82366 17.9423-2.06254 17.94231.6129 17.9423-6.18497 17.94232-5.57423 17.9423-7.50811 17.94231-4.76874 17.94231.1946V317.43227l-17.9423-2.48325-17.94232-2.33203-17.9423 3.38385-17.94231-2.28222-17.9423.18396-17.94232 12.60566-17.9423-11.6834-17.94231 8.95567-17.9423 9.24557-17.94232 11.07812-17.9423 26.13004-17.94231 10.39024L729.75 368.6715l-17.9423-10.98778-17.94232 7.86611-17.9423-1.45841-17.94231-4.76991-17.9423-1.6378-17.94232 6.4077-17.9423-10.85029-17.94231-6.09479-17.9423 3.0218-17.94232 15.3817-17.9423 25.87189-17.94231 22.69822L496.5 420.04225l-17.9423 13.94349-17.94232 3.4192-17.9423 5.59435-17.94231-7.88604-17.9423.65446-17.94232 2.87365-17.9423-4.38455-17.94231-18.72685-17.9423-4.74226-17.94232 18.63643-17.9423 5.48187-17.94231 12.64692-17.94231-.89015-17.9423-7.34442-17.94232 4.34857-17.9423 3.07337-17.94231 3.14286-17.9423 8.321-17.94232 27.38442-17.9423 12.83225-17.94231 17.0463-17.9423 9.05588-17.94232 9.03776-17.9423 5.45733L47.9423 544.28 30 552.87584z" fill="#22A884" fill-opacity=".2" aria-roledescription="area mark container"/><path d="M30 553.67141l17.9423-4.42703 17.94232-3.6987 17.9423-3.52312 17.94231-5.7299 17.9423-7.16419 17.94232-6.77208 17.9423-10.39935 17.94231-9.68539 17.9423-12.47107 17.94232-15.45704 17.9423-8.20776 17.94231-.12163 17.94231 3.9296 17.9423 6.83815 17.94232 12.01825 17.9423 10.03049 17.94231 6.9018 17.9423 5.71553 17.94232-2.2253 17.9423 3.77086 17.94231-6.58173 17.9423-5.17624 17.94232-3.75919 17.9423-5.80622 17.94231-11.49955L496.5 473.02085l17.9423-2.7019 17.94232-12.50731 17.9423-4.24299 17.94231-9.07483 17.9423-16.33498h17.94232l17.9423.64787 17.94231 4.29905 17.9423 7.32982 17.94232 4.05824 17.9423 5.81892 17.94231.39992 17.94231 3.69017 17.9423 6.95952 17.94232-2.67565 17.9423 2.22124 17.94231-2.22124 17.9423-3.86573 17.94232-4.50823 17.9423-9.51578 17.94231-9.69679 17.9423-2.29346 17.94232-10.22773 17.9423-11.87387 17.94231 3.27831L963 398.3399" stroke="#22A884" stroke-width="2" aria-roledescription="line mark container"/></g><g><path class="background" aria-hidden="true" d="M30 5z"/><path d="M30 553.67141h17.9423l17.94232-2.22006 17.9423-2.40351 17.94231-3.03621 17.9423-.88887 17.94232-5.69232 17.9423-4.25277 17.94231-5.1964 17.9423-7.17628 17.94232-12.29701 17.9423-12.04632 17.94231-12.38852L263.25 465.84669l17.9423-37.36297 17.94232 4.62204 17.9423 27.80218 17.94231 7.83415 17.9423 6.03198 17.94232-2.84549 17.9423 4.91123 17.94231 4.55618 17.9423 2.46022 17.94232 3.7665 17.9423 6.69376h17.94231L496.5 488.933l17.9423 8.42979 17.94232-7.02628 17.9423 8.6108 17.94231-3.48096 17.9423-6.33645 17.94232-11.38641 17.9423-2.593 17.94231-11.43784 17.9423-8.86962 17.94232-3.20116 17.9423 2.5088 17.94231 9.73738 17.94231-3.51831 17.9423 15.32051 17.94232 3.50542 17.9423 1.03569 17.94231 8.63807 17.9423-9.55888 17.94232 2.0288 17.9423-8.78464 17.94231-4.10694 17.9423-2.90996 17.94232-12.99677 17.9423-9.39558 17.94231 4.52315L963 440.97813V13.59356L945.0577-9.30312l-17.94232 53.8182-17.9423-12.61233-17.94231-5.73662-17.9423 26.90043-17.94232-23.99311-17.9423-15.85519-17.94231 25.29248-17.9423 52.01073-17.94232-13.31351-17.9423 11.28773-17.94231 31.46227-17.94231 27.1226-17.9423-22.45487-17.94232-23.69541-17.9423 11.65807-17.94231 11.91364-17.9423 7.24053-17.94232-14.0958-17.9423 38.24489-17.94231-5.63376-17.9423-7.62903-17.94232 26.65144-17.9423 51.20434-17.94231 44.93145L496.5 289.7821l-17.9423 5.16408-17.94232-8.86714-17.9423.2163-17.94231-12.62426-17.9423 7.07019-17.94232-51.95756-17.9423-17.3324-17.94231-33.17063-17.9423 5.84976-17.94232 5.9617-17.9423 44.42463-17.94231 46.2245L263.25 305.00663l-17.9423 7.61036-17.94232 21.9709-17.9423 46.32883-17.94231 37.39506-17.9423 26.11616-17.94232 33.7176-17.9423 17.59897-17.94231 19.72261-17.9423 9.05588-17.94232 9.03776-17.9423 5.45733L47.9423 544.28 30 552.87584z" fill="#7AD151" fill-opacity=".2" aria-roledescription="area mark container"/><path d="M30 553.67141l17.9423-4.42703 17.94232-3.6987 17.9423-3.52312 17.94231-5.7299 17.9423-7.16419 17.94232-6.1806 17.9423-10.99083 17.94231-13.90244 17.9423-16.12593 17.94232-27.94207 17.9423-29.31916 17.94231-32.76185 17.94231-36.3813 17.9423-3.78872 17.94232-19.18247 17.9423-28.25207 17.94231-20.69314 17.9423 18.36036 17.94232 31.93894 17.9423 30.2654 17.94231 44.7087 17.9423 16.41428 17.94232 9.16723 17.9423 12.31796 17.94231-2.66187L496.5 454.82097l17.9423-6.4862 17.94232-5.33548 17.9423-19.26629 17.94231-24.88447 17.9423-18.55874 17.94232-34.4522 17.9423-40.35925 17.94231-15.9159 17.9423-17.42226 17.94232-22.35776 17.9423-8.689 17.94231 8.689 17.94231 17.8216 17.9423 38.46478 17.94232 23.13909 17.9423 8.8225 17.94231 22.15564 17.9423 5.60783 17.94232-5.60783 17.9423-17.2267 17.94231-14.41326 17.9423-14.6435 17.94232-4.25458 17.9423-16.77038 17.94231-32.65177L963 254.00332" stroke="#7AD151" stroke-width="2" aria-roledescription="line mark container"/></g></g><g class="mark-group role-axis" aria-roledescription="axis" aria-label="X-axis for a linear scale with values from 0 to 52"><path class="background" aria-hidden="true" d="M30.5 565.5z" pointer-events="none"/><g class="mark-rule role-axis-tick" pointer-events="none" stroke="#888"><path d="M30.5 565.5v5M120.5 565.5v5M209.5 565.5v5M299.5 565.5v5M389.5 565.5v5M479.5 565.5v5M568.5 565.5v5M658.5 565.5v5M748.5 565.5v5M837.5 565.5v5M927.5 565.5v5"/></g><g class="mark-text role-axis-label" pointer-events="none" text-anchor="middle" font-family="Source Sans Pro, sans-serif" font-size="10" fill="#000"><text transform="translate(30.5 580.5)">0</text><text transform="translate(120.21154 580.5)">5</text><text transform="translate(209.92308 580.5)">10</text><text transform="translate(299.63462 580.5)">15</text><text transform="translate(389.34615 580.5)">20</text><text transform="translate(479.0577 580.5)">25</text><text transform="translate(568.76923 580.5)">30</text><text transform="translate(658.48077 580.5)">35</text><text transform="translate(748.1923 580.5)">40</text><text transform="translate(837.90385 580.5)">45</text><text transform="translate(927.61538 580.5)">50</text></g><path stroke="#888" d="M30.5 565.5h933" pointer-events="none"/></g><g class="mark-group role-axis" aria-roledescription="axis" aria-label="Y-axis for a pow scale with values from 0 to 5,000"><path class="background" aria-hidden="true" d="M30.5 5.5z" pointer-events="none"/><g class="mark-rule role-axis-tick" pointer-events="none" stroke="#888"><path d="M30.5 565.5h-5M30.5 553.5h-5M30.5 540.5h-5M30.5 531.5h-5M30.5 513.5h-5M30.5 495.5h-5M30.5 469.5h-5M30.5 420.5h-5M30.5 366.5h-5M30.5 294.5h-5M30.5 155.5h-5M30.5 5.5h-5"/></g><g class="mark-text role-axis-label" pointer-events="none" text-anchor="end" font-family="Source Sans Pro, sans-serif" font-size="10" fill="#000"><text transform="translate(23.5 568.5)">0</text><text transform="translate(23.5 556.37584)">1</text><text transform="translate(23.5 543.48572)">5</text><text transform="translate(23.5 534.32948)">10</text><text transform="translate(23.5 516.8911)">25</text><text transform="translate(23.5 498.00018)">50</text><text transform="translate(23.5 472.1944)">100</text><text transform="translate(23.5 423.04638)">250</text><text transform="translate(23.5 369.8045)">500</text><text transform="translate(23.5 297.07395)">1,000</text><text transform="translate(23.5 158.556)">2,500</text><text transform="translate(23.5 8.5)">5,000</text></g><path stroke="#888" d="M30.5 565.5V5.5" pointer-events="none"/></g></g></svg>