<svg xmlns="http://www.w3.org/2000/svg" class="marks" width="898" height="682"><g class="mark-group role-frame root" aria-roledescription="group mark container" fill="none" stroke-miterlimit="10"><path class="background" aria-hidden="true" d="M20 5h878v660H20z"/><path d="M20 5h878v660H20z" fill="#f2f5f9" aria-roledescription="rect mark container"/><text text-anchor="middle" transform="translate(459 341)" font-family="sans-serif" font-size="20" font-weight="bold" fill="#012a58" aria-roledescription="text mark container">Coming Soon</text><g class="mark-group role-axis" aria-roledescription="axis" aria-label="X-axis for a linear scale with values from 0 to 25,000"><path class="background" aria-hidden="true" d="M20.5 665.5z" pointer-events="none"/><g class="mark-rule role-axis-tick" pointer-events="none" stroke="#888"><path d="M20.5 665.5v5M90.5 665.5v5M160.5 665.5v5M231.5 665.5v5M301.5 665.5v5M371.5 665.5v5M441.5 665.5v5M512.5 665.5v5M582.5 665.5v5M652.5 665.5v5M722.5 665.5v5M793.5 665.5v5M863.5 665.5v5"/></g><g class="mark-text role-axis-label" pointer-events="none" text-anchor="middle" font-family="Source Sans Pro, sans-serif" font-size="10" fill="#000"><text transform="translate(20.5 680.5)">0</text><text transform="translate(90.74 680.5)">2,000</text><text transform="translate(160.98 680.5)">4,000</text><text transform="translate(231.22 680.5)">6,000</text><text transform="translate(301.46 680.5)">8,000</text><text transform="translate(371.7 680.5)">10,000</text><text transform="translate(441.94 680.5)">12,000</text><text transform="translate(512.18 680.5)">14,000</text><text transform="translate(582.42 680.5)">16,000</text><text transform="translate(652.66 680.5)">18,000</text><text transform="translate(722.9 680.5)">20,000</text><text transform="translate(793.14 680.5)">22,000</text><text transform="translate(863.38 680.5)">24,000</text></g><path stroke="#888" d="M20.5 665.5h878" pointer-events="none"/></g><g class="mark-group role-axis" aria-roledescription="axis" aria-label="Y-axis for a linear scale with values from 0.0 to 1.0"><path class="background" aria-hidden="true" d="M20.5 5.5z" pointer-events="none"/><g class="mark-rule role-axis-tick" pointer-events="none" stroke="#888"><path d="M20.5 665.5h-5M20.5 599.5h-5M20.5 533.5h-5M20.5 467.5h-5M20.5 401.5h-5M20.5 335.5h-5M20.5 269.5h-5M20.5 203.5h-5M20.5 137.5h-5M20.5 71.5h-5M20.5 5.5h-5"/></g><g class="mark-text role-axis-label" pointer-events="none" text-anchor="end" font-family="Source Sans Pro, sans-serif" font-size="10" fill="#000"><text transform="translate(13.5 668.5)">0.0</text><text transform="translate(13.5 602.5)">0.1</text><text transform="translate(13.5 536.5)">0.2</text><text transform="translate(13.5 470.5)">0.3</text><text transform="translate(13.5 404.5)">0.4</text><text transform="translate(13.5 338.5)">0.5</text><text transform="translate(13.5 272.5)">0.6</text><text transform="translate(13.5 206.5)">0.7</text><text transform="translate(13.5 140.5)">0.8</text><text transform="translate(13.5 74.5)">0.9</text><text transform="translate(13.5 8.5)">1.0</text></g><path stroke="#888" d="M20.5 665.5V5.5" pointer-events="none"/></g></g></svg>